<?xml version="1.0" encoding="utf-8"?>

<!DOCTYPE svg PUBLIC "-//W3C//DTD SVG 1.1//EN" "http://www.w3.org/Graphics/SVG/1.1/DTD/svg11.dtd">
<svg version="1.1" id="Layer_1" xmlns="http://www.w3.org/2000/svg" xmlns:xlink="http://www.w3.org/1999/xlink" x="0px" y="0px"
	 viewBox="0 0 1751.1646 1665.4564" enable-background="new 0 0 1751.1646 1665.4564" xml:space="preserve">
<g>
	<g>
		<path d="M770.1864,447.7356c11.1364,9.036,21.4095,19.5091,28.15,32.3141c7.8013,13.8104,11.2529,29.6208,12.2401,45.3574
			C799.0135,498.5705,785.3516,472.7036,770.1864,447.7356z M408.4401,863.7089c12.0351-7.7991,25.1701-14.333,39.4314-16.7867
			c15.5452-3.1518,31.6484-1.5488,46.9198,2.3752C465.695,852.0016,436.8723,857.0014,408.4401,863.7089z M692.2684,1336.2928
			c-3.6983-13.8561-5.8535-28.3673-3.7801-42.6887c1.8062-15.7583,8.3069-30.5781,16.758-43.8894
			C698.8268,1278.2224,694.6752,1307.1794,692.2684,1336.2928z M1229.4303,1212.3926c-14.3208-0.7644-28.7878-3.199-41.7676-9.5964
			c-14.429-6.5873-26.5145-17.3495-36.5629-29.5004C1176.2286,1188.2104,1202.4856,1201.1071,1229.4303,1212.3926z
			 M1277.5863,663.234c-5.1525,13.3836-11.9384,26.3903-22.0337,36.7579c-10.7238,11.6871-24.6938,19.8555-39.3551,25.6572
			C1238.1475,706.359,1258.5266,685.3725,1277.5863,663.234z M940.5881,525.407c0.9871-15.7365,4.4387-31.547,12.2401-45.3574
			c6.7405-12.805,17.0136-23.2781,28.15-32.3141C965.8129,472.7036,952.1511,498.5705,940.5881,525.407z M534.967,725.649
			c-14.6613-5.8016-28.6313-13.97-39.355-25.6572c-10.0953-10.3676-16.8813-23.3743-22.0337-36.7579
			C492.6379,685.3725,513.0171,706.359,534.967,725.649z M600.0647,1173.2958c-10.0483,12.1509-22.1339,22.9131-36.5628,29.5004
			c-12.9798,6.3975-27.4468,8.832-41.7676,9.5964C548.679,1201.1071,574.9359,1188.2104,600.0647,1173.2958z M1045.9183,1249.7147
			c8.451,13.3113,14.9518,28.1311,16.7579,43.8894c2.0734,14.3214-0.0818,28.8326-3.7802,42.6887
			C1056.4893,1307.1794,1052.3378,1278.2224,1045.9183,1249.7147z M1256.3733,849.2974c15.2714-3.924,31.3746-5.527,46.9198-2.3752
			c14.2612,2.4537,27.3964,8.9876,39.4314,16.7867C1314.2922,857.0014,1285.4696,852.0016,1256.3733,849.2974z M875.5823,232.1816
			c-11.9538,5.0866-24.9864,7.134-37.9001,7.8233c12.8044-5.3631,25.4536-11.0899,37.9001-17.2242
			c12.4465,6.1343,25.0956,11.8612,37.9001,17.2242C900.5687,239.3156,887.5361,237.2682,875.5823,232.1816z M1515.1594,696.8616
			c-8.5316-9.7969-14.5061-21.559-19.1522-33.6276c9.0574,10.5204,18.4127,20.7808,28.093,30.7225
			c-1.9879,13.733-3.5256,27.5327-4.6694,41.3677C1516.0958,722.8296,1514.0156,709.8022,1515.1594,696.8616z M1270.8627,1448.7296
			c6.681-11.1415,16.0212-20.4581,26.0634-28.6063c-7.2067,11.8651-14.0739,23.9331-20.5376,36.2118
			c-13.6752,2.3531-27.2747,5.155-40.786,8.3424C1246.455,1457.6448,1258.202,1451.6407,1270.8627,1448.7296z M480.3019,1448.7296
			c12.6606,2.9111,24.4077,8.9152,35.2603,15.9479c-13.5114-3.1874-27.1109-5.9893-40.786-8.3424
			c-6.4638-12.2787-13.331-24.3467-20.5377-36.2118C464.2807,1428.2715,473.6209,1437.5881,480.3019,1448.7296z M236.0052,696.8616
			c1.1437,12.9406-0.9364,25.968-4.2714,38.4627c-1.1438-13.835-2.6815-27.6348-4.6694-41.3677
			c9.6803-9.9417,19.0356-20.2021,28.093-30.7225C250.5112,675.3026,244.5367,687.0647,236.0052,696.8616z M1592.2943,671.799
			c0.9524-13.8546-0.7588-27.944,0.7911-41.7412c3.7703-14.0748,16.6093-22.704,26.1182-32.8412
			c3.0789,2.4087,6.5137,4.4821,9.069,7.4982c3.6233,4.7126,3.4348,10.996,4.4822,16.5463
			c4.7753-6.011,9.7393-12.3992,16.9652-15.5409c13.5303-6.3881,28.8407-4.6916,43.2296-7.1212
			c-2.5151,14.2178-0.8011,29.3433-6.9581,42.7559c12.8649,7.2321,20.3688,20.4763,30.7606,30.5004
			c-13.069,6.4921-24.4583,16.8638-39.1593,19.6486c-7.6925,1.7057-15.4633-0.5447-22.8599-2.6008
			c2.4152,5.1058,6.2609,10.0784,6.0995,16.0207c-0.2944,3.942-1.8545,7.6384-2.9296,11.3968
			c-13.6514-2.612-29.1105-2.0466-40.4336-11.2173C1608.1055,694.8522,1601.2083,682.4477,1592.2943,671.799z M1318.5347,1514.3445
			c13.4707-3.3755,26.3419-9.3568,39.9427-12.1462c14.5509-0.7637,26.7252,8.7803,39.3048,14.6912
			c-1.3395,3.6726-2.25,7.5801-4.3287,10.9423c-3.3623,4.9023-9.3964,6.6647-14.3514,9.3759
			c7.1925,2.6841,14.802,5.431,20.0228,11.3325c10.2566,10.8939,13.3743,25.9794,20.1313,38.9133
			c-14.2992,2.0015-28.1548,8.3055-42.8135,6.5947c-2.9027,14.47-13.1798,25.6993-19.5021,38.6802
			c-10.2129-10.4232-23.5964-18.0499-30.7878-31.1709c-3.9994-6.7891-4.2604-14.8749-4.5905-22.5448
			c-4.1097,3.8748-7.6504,9.0688-13.3518,10.7517c-3.8401,0.9381-7.8376,0.5966-11.7443,0.7355
			c-1.7344-13.7904-7.0492-28.3181-1.8264-41.9209C1301.4957,1536.5056,1311.1617,1526.1128,1318.5347,1514.3445z
			 M432.6299,1514.3445c7.373,11.7683,17.039,22.1611,23.8948,34.2344c5.2228,13.6028-0.0921,28.1305-1.8264,41.9209
			c-3.9067-0.1389-7.9043,0.2026-11.7443-0.7355c-5.7014-1.6829-9.2421-6.877-13.3518-10.7517
			c-0.3302,7.6699-0.5912,15.7557-4.5905,22.5448c-7.1913,13.121-20.575,20.7477-30.7878,31.1709
			c-6.3222-12.9808-16.5994-24.2102-19.5021-38.6802c-14.6588,1.7108-28.5143-4.5933-42.8135-6.5947
			c6.7571-12.934,9.8748-28.0194,20.1313-38.9133c5.2208-5.9015,12.8303-8.6484,20.0228-11.3325
			c-4.955-2.7112-10.9891-4.4735-14.3513-9.3759c-2.0788-3.3622-2.9894-7.2697-4.3287-10.9423
			c12.5795-5.9109,24.7538-15.4548,39.3048-14.6912C406.288,1504.9877,419.1591,1510.969,432.6299,1514.3445z M158.8702,671.799
			c-8.9139,10.6487-15.8112,23.0532-25.1749,33.3043c-11.3231,9.1707-26.7822,8.6053-40.4336,11.2173
			c-1.0751-3.7584-2.6352-7.4548-2.9296-11.3968c-0.1614-5.9423,3.6844-10.9149,6.0995-16.0207
			c-7.3966,2.0561-15.1673,4.3066-22.8599,2.6008c-14.701-2.7847-26.0902-13.1565-39.1592-19.6486
			c10.3918-10.0241,17.8958-23.2683,30.7606-30.5004c-6.1569-13.4126-4.443-28.5381-6.9581-42.7559
			c14.389,2.4296,29.6994,0.733,43.2296,7.1212c7.226,3.1417,12.1899,9.5298,16.9653,15.5409
			c1.0473-5.5503,0.8588-11.8337,4.4821-16.5463c2.5553-3.0161,5.9901-5.0895,9.069-7.4982
			c9.5089,10.1372,22.3479,18.7664,26.1181,32.8412C159.629,643.8549,157.9179,657.9444,158.8702,671.799z M875.5823,151.0771
			c-12.8821-5.187-26.8109-7.9135-39.4537-13.6512c-12.2209-7.935-16.4603-22.8122-23.163-34.9883
			c3.2422-2.1839,6.2756-4.8099,9.9337-6.3081c5.6016-1.9898,11.5192,0.1312,17.1215,0.8503
			c-4.2411-6.3992-8.7828-13.0942-9.5377-20.9373c-1.8944-14.842,4.4503-28.8789,6.5861-43.3144
			c12.7447,6.7856,27.6595,9.8296,38.5131,19.8299c10.8536-10.0003,25.7684-13.0443,38.5131-19.8299
			c2.1358,14.4355,8.4805,28.4724,6.5861,43.3144c-0.7549,7.8432-5.2965,14.5382-9.5377,20.9373
			c5.6023-0.7191,11.5198-2.8401,17.1215-0.8503c3.6581,1.4982,6.6915,4.1242,9.9337,6.3081
			c-6.7027,12.176-10.9421,27.0532-23.163,34.9883C902.3931,143.1637,888.4644,145.8901,875.5823,151.0771z M1579.5516,675.9393
			c-3.0038-13.7734-9.9519-26.8566-22.9099-33.3986c-8.3151-5.3618-20.2954-5.0267-26.3693-13.5302
			c-4.0422-7.1422,3.9375-12.3993,9.3203-15.2896c-6.8698-8.9643-19.3109-12.4411-29.6786-7.6029
			c-6.7023,3.016-8.5244,10.6817-10.4513,17.0698c4.9847-2.9951,11.0797-7.163,16.8815-3.4768
			c9.1527,4.5659,6.7859,20.3163-3.5815,21.4683c-7.5612,1.6337-12.8601-5.0476-15.0175-11.3519
			c-4.5867-9.8021-1.3402-22.3898,7.7916-28.3381c14.2424-9.6974,33.5325-7.7076,48.2773-0.1884
			c17.6145,9.4879,26.7673,28.8826,31.019,47.6281c2.1101,7.9062,2.9174,15.9998,3.6542,24.1069
			c4.1692,6.9919,8.2734,14.0142,11.2134,21.6508c7.5786,17.6645,11.5737,38.735,2.9003,56.7645
			c-7.5093,14.7501-21.9457,27.6981-39.168,28.2242c-10.8842,0.5553-20.9094-7.7202-22.9603-18.3462
			c-1.9603-6.3683-1.6005-14.8883,5.4769-18.0109c9.0645-5.1619,20.2372,6.1893,15.5161,15.263
			c-2.527,6.3925-9.9077,6.603-15.7009,7.1099c5.3137,4.0355,11.2937,9.1661,18.4886,7.6667
			c11.2314-2.1797,19.2529-12.3053,19.5416-23.5956c-6.0536,0.8256-15.5995,1.263-16.5272-6.8911
			c-0.0845-10.4496,9.8048-17.2204,13.3802-26.4457C1587.2864,703.5164,1585.2174,688.8478,1579.5516,675.9393z
			 M1310.6593,1503.5049c12.171-7.1129,22.4668-17.7639,24.6843-32.1094c2.5299-9.5649-1.491-20.8553,4.7195-29.2596
			c5.5435-6.0515,13.0092-0.0868,17.4214,4.1394c6.4027-9.3037,5.8649-22.2103-1.9403-30.5754
			c-4.9396-5.4423-12.7931-4.8064-19.4641-4.6649c4.3889,3.8152,10.2363,8.3239,8.5233,14.9807
			c-1.514,10.1158-17.225,12.7319-21.5243,3.2279c-3.8903-6.6863,0.8265-13.7905,6.1558-17.7904
			c7.905-7.3911,20.8798-8.1934,29.3589-1.3467c13.6239,10.5487,17.6925,29.5094,15.0977,45.8563
			c-3.5803,19.6842-19.1975,34.3823-35.7115,44.2186c-6.8672,4.4501-14.3152,7.7189-21.7979,10.9249
			c-5.3615,6.1256-10.7717,12.199-17.1261,17.355c-14.458,12.6663-33.2627,22.9771-53.09,20.2994
			c-16.3486-2.5837-33.124-12.3124-38.9464-28.5292c-3.8915-10.1798,0.881-22.2717,10.3531-27.5057
			c5.4508-3.8324,13.665-6.1229,18.8219-0.3569c7.7103,7.0258,0.3673,21.1593-9.7213,19.4733
			c-6.8604-0.4279-9.3414-7.3824-11.6136-12.7354c-2.196,6.3007-5.2277,13.5734-1.5781,19.9529
			c5.5437,10.0082,17.6525,14.5081,28.4794,11.2937c-2.6559-5.5022-6.0217-14.4457,1.4467-17.8479
			c9.9121-3.3093,19.4075,4.0037,29.286,4.5532C1286.822,1519.3828,1300.1333,1512.8823,1310.6593,1503.5049z M440.5053,1503.5049
			c10.5259,9.3774,23.8372,15.8779,38.1657,13.5538c9.8786-0.5496,19.3739-7.8625,29.286-4.5532
			c7.4683,3.4022,4.1025,12.3457,1.4467,17.8479c10.8269,3.2144,22.9356-1.2855,28.4794-11.2937
			c3.6495-6.3795,0.6179-13.6522-1.5781-19.9529c-2.2723,5.3529-4.7534,12.3075-11.6138,12.7354
			c-10.0885,1.686-17.4315-12.4475-9.7213-19.4733c5.1569-5.766,13.371-3.4755,18.8219,0.3569
			c9.4722,5.234,14.2446,17.3259,10.3531,27.5057c-5.8223,16.2168-22.5978,25.9454-38.9464,28.5292
			c-19.8273,2.6776-38.632-7.6332-53.09-20.2994c-6.3543-5.156-11.7646-11.2294-17.1261-17.355
			c-7.4826-3.2061-14.9306-6.4749-21.7978-10.9249c-16.5141-9.8363-32.1313-24.5344-35.7116-44.2186
			c-2.5948-16.3469,1.4738-35.3076,15.0977-45.8563c8.479-6.8467,21.4539-6.0444,29.3589,1.3467
			c5.3291,3.9999,10.046,11.1041,6.1557,17.7904c-4.2993,9.504-20.0102,6.8879-21.5243-3.2279
			c-1.713-6.6569,4.1344-11.1655,8.5233-14.9807c-6.6709-0.1415-14.5245-0.7773-19.464,4.6649
			c-7.8052,8.3651-8.3431,21.2717-1.9404,30.5754c4.4123-4.2262,11.8779-10.1909,17.4214-4.1394
			c6.2104,8.4043,2.1895,19.6947,4.7195,29.2596C418.0384,1485.741,428.3342,1496.392,440.5053,1503.5049z M171.6129,675.9393
			c-5.6657,12.9086-7.7347,27.5771-1.0966,40.4861c3.5753,9.2253,13.4646,15.996,13.3802,26.4457
			c-0.9278,8.1541-10.4736,7.7167-16.5273,6.8911c0.2887,11.2903,8.3102,21.4158,19.5416,23.5956
			c7.195,1.4995,13.175-3.6312,18.4887-7.6667c-5.7932-0.5069-13.174-0.7174-15.7009-7.1099
			c-4.721-9.0737,6.4517-20.4249,15.5162-15.263c7.0774,3.1226,7.4372,11.6426,5.4769,18.0109
			c-2.0509,10.626-12.0762,18.9015-22.9603,18.3462c-17.2223-0.5261-31.6587-13.4742-39.1679-28.2242
			c-8.6736-18.0294-4.6784-39.1,2.9002-56.7645c2.94-7.6366,7.0443-14.6589,11.2134-21.6508
			c0.7369-8.1072,1.5441-16.2007,3.6542-24.1069c4.2517-18.7455,13.4045-38.1402,31.019-47.6281
			c14.7449-7.5192,34.035-9.509,48.2773,0.1884c9.1319,5.9483,12.3783,18.536,7.7917,28.3381
			c-2.1573,6.3043-7.4563,12.9857-15.0175,11.3519c-10.3674-1.1519-12.7343-16.9023-3.5815-21.4683
			c5.8017-3.6862,11.8967,0.4818,16.8814,3.4768c-1.9269-6.3881-3.749-14.0538-10.4513-17.0698
			c-10.3676-4.8382-22.8088-1.3614-29.6786,7.6029c5.3828,2.8903,13.3626,8.1474,9.3204,15.2896
			c-6.0739,8.5035-18.0542,8.1684-26.3692,13.5302C181.5648,649.0826,174.6167,662.1658,171.6129,675.9393z M875.5823,164.4756
			c-14.0275-1.3994-28.6175,1.1656-38.8435,11.468c-7.6689,6.2511-11.0522,17.7486-21.0165,20.8975
			c-8.0417,1.6374-10.5756-7.5764-11.6611-13.5889c-10.6484,3.7635-17.7996,14.5213-16.402,25.8766
			c0.7972,7.3062,7.5247,11.408,13.0048,15.2147c-1.3081-5.6663-3.3887-12.7509,1.91-17.1295
			c7.1708-7.2939,21.4189-0.1757,19.3108,10.0402c-0.7828,7.6959-8.7746,10.671-15.437,10.7745
			c-10.7397,1.3331-21.7081-5.6442-24.5433-16.1673c-4.8217-16.5419,3.0316-34.273,14.7393-45.9727
			c14.4667-13.8204,35.7406-16.532,54.8824-14.7829c8.1713,0.4363,16.1182,2.1696,24.0563,3.9741
			c7.938-1.8044,15.8849-3.5378,24.0563-3.9741c19.1418-1.749,40.4157,0.9625,54.8824,14.7829
			c11.7076,11.6997,19.5609,29.4308,14.7393,45.9727c-2.8352,10.523-13.8036,17.5004-24.5433,16.1673
			c-6.6624-0.1035-14.6542-3.0786-15.437-10.7745c-2.1082-10.216,12.14-17.3341,19.3108-10.0402
			c5.2986,4.3786,3.2181,11.4633,1.91,17.1295c5.48-3.8066,12.2075-7.9084,13.0048-15.2147
			c1.3976-11.3553-5.7535-22.1131-16.402-25.8766c-1.0855,6.0125-3.6194,15.2263-11.6611,13.5889
			c-9.9643-3.1489-13.3477-14.6464-21.0165-20.8975C904.1998,165.6413,889.6098,163.0762,875.5823,164.4756z M1538.8817,689.1537
			c-5.5266-1.4192-10.5735-3.545-13.3846-9.1012c-1.9897-5.9273,3.8748-8.692,7.8334-11.5405
			c-7.8124-1.8431-15.4362-4.3146-23.1439-6.5137c1.927-9.9487,11.373-16.5045,21.1123-17.1956
			c12.8809-1.4033,24.61,6.1368,33.7417,14.4099c5.3109,4.9288,8.3217,11.3057,10.996,17.8688
			c1.6941,6.8816,3.0066,13.8103,1.6071,20.9194c-2.5249,12.0605-7.582,25.0548-18.8276,31.4907
			c-8.2855,5.1655-19.7809,5.414-27.1875-1.502c4.943-6.3097,9.6581-12.7902,14.895-18.8734
			c-4.8768,0.0223-11.2463,1.2327-13.1206-4.7322C1532.4113,698.2366,1535.2449,693.5504,1538.8817,689.1537z M1285.5239,1468.9089
			c-0.358-5.6946,0.1041-11.1514,4.5197-15.5419c5.0223-3.724,9.464,0.999,13.3962,3.8837
			c-0.6613-7.9995-0.6666-16.0139-0.9569-24.0239c10.0573-1.2417,19.2111,5.7162,22.8781,14.7653
			c5.3149,11.8168,1.7684,25.3018-3.278,36.5431c-3.0463,6.5741-8.1808,11.4081-13.5962,15.9796
			c-6.0214,3.7377-12.2053,7.1271-19.3989,7.9928c-12.2506,1.3257-26.1715,0.5315-35.7676-8.1749
			c-7.473-6.2838-11.2616-17.1396-6.9729-26.321c7.5283,2.7513,15.1488,5.233,22.5525,8.3339
			c-1.5283-4.6312-4.6477-10.3149,0.446-13.9407C1274.886,1465.562,1280.2186,1466.8087,1285.5239,1468.9089z M465.6407,1468.9089
			c5.3053-2.1002,10.6378-3.3469,16.1779-0.5042c5.0937,3.6257,1.9744,9.3094,0.446,13.9407
			c7.4037-3.1008,15.0241-5.5825,22.5525-8.3339c4.2888,9.1814,0.5001,20.0372-6.9729,26.321
			c-9.596,8.7064-23.517,9.5006-35.7675,8.1749c-7.1936-0.8657-13.3777-4.2551-19.399-7.9928
			c-5.4154-4.5715-10.5499-9.4055-13.5962-15.9796c-5.0464-11.2413-8.5929-24.7263-3.2779-36.5431
			c3.6669-9.0491,12.8207-16.007,22.878-14.7653c-0.2903,8.01-0.2957,16.0244-0.9569,24.0239
			c3.9323-2.8846,8.3739-7.6077,13.3963-3.8837C465.5366,1457.7576,465.9987,1463.2144,465.6407,1468.9089z M212.2829,689.1537
			c3.6369,4.3966,6.4704,9.0829,5.4788,15.2303c-1.8743,5.9648-8.2438,4.7545-13.1206,4.7322
			c5.237,6.0831,9.9521,12.5637,14.8951,18.8734c-7.4067,6.916-18.902,6.6675-27.1875,1.502
			c-11.2457-6.4359-16.3028-19.4302-18.8277-31.4907c-1.3996-7.1091-0.0871-14.0378,1.607-20.9194
			c2.6744-6.5631,5.6852-12.94,10.996-17.8688c9.1317-8.2731,20.8608-15.8132,33.7417-14.4099
			c9.7393,0.6912,19.1853,7.2469,21.1123,17.1956c-7.7078,2.1992-15.3315,4.6706-23.1439,6.5137
			c3.9586,2.8484,9.823,5.6132,7.8333,11.5405C222.8563,685.6087,217.8094,687.7346,212.2829,689.1537z M875.5823,207.2385
			c-3.0576,4.8175-6.6389,8.9605-12.7918,9.9171c-6.2521,0.0607-7.0693-6.3711-8.5551-11.0161
			c-4.1671,6.8605-8.8734,13.3474-13.3468,19.9983c-8.8663-4.907-12.1822-15.9165-9.8299-25.3927
			c2.6458-12.6841,13.4413-21.5091,24.1314-27.6374c6.3287-3.5279,13.3239-4.4207,20.3922-4.9361
			c7.0683,0.5154,14.0635,1.4082,20.3922,4.9361c10.6901,6.1283,21.4856,14.9533,24.1314,27.6374
			c2.3523,9.4762-0.9636,20.4857-9.8299,25.3927c-4.4734-6.6509-9.1797-13.1378-13.3468-19.9983
			c-1.4858,4.6451-2.303,11.0768-8.5551,11.0161C882.2212,216.199,878.6398,212.056,875.5823,207.2385z M720.3423,561.6932
			c-2.7779,5.7703-5.2677,11.9423-9.9558,16.4753c-7.5468,7.502-17.1674,12.3043-25.8716,18.2852
			c15.4438-6.3898,32.0676-14.3779,49.061-8.5923c5.732-10.9987,13.7193-20.67,23.5239-28.2753
			C745.1147,562.6511,732.6111,563.7195,720.3423,561.6932z M501.4175,946.3283c4.6295,4.425,9.73,8.7003,12.5924,14.5597
			c4.8028,9.4957,6.397,20.1294,9.3955,30.2557c-1.3046-16.6625-3.7648-34.9411,6.989-49.3149
			c-8.6891-8.8502-15.4189-19.4352-19.6221-31.11C509.9836,923.0643,507.1359,935.2861,501.4175,946.3283z M799.5757,1273.3969
			c5.639-3.0354,11.2812-6.5652,17.7383-7.4768c10.5151-1.6334,21.121,0.1364,31.6783,0.4138
			c-16.2501-3.9082-34.3943-7.2168-44.7416-21.886c-11.1022,5.5291-23.2487,8.6584-35.651,9.0482
			C780.0974,1258.0612,790.8411,1264.5461,799.5757,1273.3969z M1202.7725,1090.9014c-1.1444-6.3011-2.7579-12.7578-1.6295-19.1807
			c1.6958-10.5052,6.6564-20.0452,10.1827-30c-8.7385,14.2471-17.4921,30.4808-34.6407,35.7887
			c1.8276,12.2673,1.0504,24.7864-2.4114,36.7021C1182.1681,1104.6873,1191.6556,1096.4735,1202.7725,1090.9014z
			 M1153.8035,651.0443c-6.3463-0.8588-12.9856-1.3195-18.7455-4.3774c-9.4669-4.8592-17.0071-12.525-25.385-18.9549
			c10.8495,12.7134,23.5837,26.0551,23.3325,44.0046c12.2317,2.0526,23.8978,6.6604,34.1606,13.6349
			C1160.5476,674.9002,1155.6676,663.3388,1153.8035,651.0443z M994.0648,559.5861c9.8046,7.6053,17.7919,17.2766,23.5239,28.2753
			c16.9933-5.7856,33.6172,2.2025,49.061,8.5923c-8.7042-5.9809-18.3247-10.7831-25.8716-18.2852
			c-4.6881-4.533-7.178-10.705-9.9558-16.4753C1018.5534,563.7195,1006.0499,562.6511,994.0648,559.5861z M583.9985,685.3516
			c10.2628-6.9745,21.929-11.5823,34.1606-13.6349c-0.2512-17.9496,12.483-31.2913,23.3324-44.0046
			c-8.3779,6.4299-15.918,14.0957-25.3849,18.9549c-5.7598,3.0579-12.3992,3.5186-18.7455,4.3774
			C595.4969,663.3388,590.6169,674.9002,583.9985,685.3516z M576.8911,1114.2115c-3.4619-11.9158-4.2391-24.4348-2.4114-36.7021
			c-17.1487-5.3079-25.9023-21.5416-34.6407-35.7887c3.5263,9.9548,8.4869,19.4948,10.1827,30
			c1.1284,6.4229-0.4851,12.8795-1.6295,19.1807C559.5089,1096.4735,568.9965,1104.6873,576.8911,1114.2115z M982.5648,1253.4961
			c-12.4023-0.3898-24.5488-3.5192-35.651-9.0482c-10.3472,14.6692-28.4915,17.9778-44.7416,21.886
			c10.5573-0.2775,21.1632-2.0472,31.6783-0.4138c6.4572,0.9116,12.0993,4.4414,17.7383,7.4768
			C960.3235,1264.5461,971.0671,1258.0612,982.5648,1253.4961z M1240.3923,910.7188c-4.2032,11.6749-10.933,22.2598-19.6221,31.11
			c10.7537,14.3738,8.2935,32.6525,6.9889,49.3149c2.9984-10.1263,4.5927-20.7601,9.3955-30.2557
			c2.8624-5.8594,7.9629-10.1347,12.5924-14.5597C1244.0287,935.2861,1241.181,923.0643,1240.3923,910.7188z M875.5823,96.4843
			c-8.2239-7.426-14.013-17.7236-19.7955-27.1513c3.5264,9.9548,8.4869,19.4947,10.1828,29.9999
			c1.1284,6.4229-0.4851,12.8796-1.6295,19.1807c3.9529,1.9813,7.6998,4.2966,11.2422,6.8861
			c3.5425-2.5895,7.2894-4.9048,11.2422-6.8861c-1.1444-6.3011-2.7579-12.7578-1.6295-19.1807
			c1.6959-10.5052,6.6564-20.0451,10.1828-29.9999C889.5953,78.7607,883.8062,89.0583,875.5823,96.4843z M1644.2152,654.9288
			c4.5212-10.1161,12.5259-18.8041,19.7052-27.2169c-8.3779,6.4299-15.918,14.0957-25.3849,18.9549
			c-5.7599,3.0579-12.3992,3.5186-18.7455,4.3774c-0.6628,4.3716-1.707,8.6506-3.0751,12.8199
			c3.5575,2.5689,6.9174,5.4169,10.0232,8.564c5.639-3.0355,11.2811-6.5652,17.7383-7.4769
			c10.5151-1.6334,21.121,0.1364,31.6783,0.4139C1665.4016,662.7791,1653.8191,660.4554,1644.2152,654.9288z M1350.6235,1558.511
			c11.0182,1.174,21.7545,6.1021,31.974,10.3303c-8.7041-5.9808-18.3247-10.7831-25.8715-18.2852
			c-4.6881-4.533-7.178-10.705-9.9559-16.4752c-4.3624,0.7205-8.7546,1.0497-13.1427,1.037
			c-1.3439,4.1771-3.0143,8.2527-5.0476,12.1791c4.6295,4.4249,9.7301,8.7002,12.5924,14.5597
			c4.8029,9.4956,6.3971,20.1293,9.3955,30.2557C1349.7045,1581.0864,1348.3352,1569.3527,1350.6235,1558.511z M400.541,1558.511
			c2.2884,10.8417,0.9191,22.5754,0.0558,33.6014c2.9984-10.1265,4.5927-20.7601,9.3954-30.2557
			c2.8624-5.8595,7.9629-10.1348,12.5924-14.5597c-2.0333-3.9264-3.7037-8.002-5.0476-12.1791
			c-4.388,0.0127-8.7802-0.3165-13.1427-1.037c-2.7778,5.7703-5.2677,11.9423-9.9558,16.4752
			c-7.5468,7.5021-17.1674,12.3043-25.8716,18.2852C378.7866,1564.613,389.5228,1559.6849,400.541,1558.511z M106.9493,654.9288
			c-9.6039,5.5266-21.1864,7.8503-31.9396,10.4365c10.5573-0.2776,21.1632-2.0474,31.6783-0.4139
			c6.4572,0.9117,12.0993,4.4414,17.7384,7.4769c3.1059-3.1471,6.4657-5.9951,10.0231-8.564
			c-1.368-4.1693-2.4122-8.4483-3.0751-12.8199c-6.3463-0.8588-12.9856-1.3195-18.7454-4.3774
			c-9.467-4.8592-17.0071-12.525-25.385-18.9549C94.4234,636.1248,102.4281,644.8127,106.9493,654.9288z M810.3397,814.874
			c7.4734-6.139,16.0105-10.8881,25.0095-14.4611c-12.4023-0.3898-24.5488-3.5192-35.651-9.0482
			c-1.0598,1.5025-2.2015,2.8859-3.4145,4.1628c-1.5893,0.759-3.2578,1.4174-5.0142,1.961
			c1.8276,12.2673,1.0504,24.7864-2.4114,36.7021C795.0369,826.7363,802.1917,820.0847,810.3397,814.874z M940.8249,814.874
			c8.1479,5.2106,15.3027,11.8623,21.4817,19.3167c-3.4619-11.9158-4.2391-24.4348-2.4114-36.7021
			c-1.7565-0.5436-3.4249-1.202-5.0142-1.961c-1.213-1.277-2.3547-2.6603-3.4145-4.1628
			c-11.1022,5.529-23.2487,8.6584-35.651,9.0482C924.8144,803.986,933.3514,808.735,940.8249,814.874z M981.1471,938.9729
			c-2.4378,9.3593-6.553,18.2194-11.7331,26.3994c10.2628-6.9745,21.929-11.5823,34.1606-13.6349
			c-0.0258-1.8385,0.0847-3.6287,0.3155-5.3748c0.8397-1.5483,1.8025-3.0615,2.904-4.5338
			c-8.6891-8.8502-15.4189-19.4352-19.6221-31.11C986.5547,920.3813,984.6761,929.9681,981.1471,938.9729z M875.5823,1015.6702
			c-9.6545,0.5738-19.3527-0.6021-28.7331-3.0009c9.8046,7.6052,17.7919,17.2766,23.5239,28.2752
			c1.7405-0.5925,3.4773-1.0406,5.2092-1.3607c1.7319,0.3201,3.4687,0.7682,5.2092,1.3607
			c5.732-10.9987,13.7193-20.67,23.5239-28.2752C894.9349,1015.0681,885.2368,1016.244,875.5823,1015.6702z M770.0175,938.9729
			c-3.5291-9.0048-5.4077-18.5916-6.0249-28.2542c-4.2032,11.6749-10.933,22.2598-19.6221,31.11
			c1.1015,1.4723,2.0643,2.9855,2.904,4.5338c0.2308,1.7461,0.3412,3.5363,0.3155,5.3748
			c12.2317,2.0526,23.8979,6.6604,34.1606,13.6349C776.5704,957.1923,772.4553,948.3322,770.0175,938.9729z M654.3804,600.2145
			c3.4984-8.6273,7.1286-17.1809,13.6072-24.0621c5.2208-5.9015,12.8303-8.6484,20.0228-11.3325
			c-4.955-2.7112-10.9891-4.4736-14.3514-9.3759c-2.0788-3.3622-2.9893-7.2697-4.3287-10.9422
			c12.5795-5.9109,24.7538-15.455,39.3048-14.6913c18.5614,3.8068,35.7637,13.5584,54.9856,14.5186
			c-11.5201-5.4828-23.7183-9.5564-34.488-16.5353c-16.5141-9.8363-32.1313-24.5345-35.7116-44.2188
			c-2.5948-16.3468,1.4738-35.3076,15.0977-45.8562c8.4791-6.8468,21.4539-6.0446,29.3589,1.3466
			c5.3292,3.9999,10.046,11.1042,6.1557,17.7904c-4.2993,9.504-20.0102,6.8879-21.5242-3.2279
			c-1.713-6.6569,4.1344-11.1655,8.5233-14.9807c-6.6709-0.1415-14.5245-0.7773-19.4641,4.6649
			c-7.8052,8.3651-8.3431,21.2718-1.9404,30.5755c4.4122-4.2262,11.8779-10.1909,17.4214-4.1394
			c6.2104,8.4044,2.1896,19.6948,4.7195,29.2597c2.9534,19.1061,20.2366,31.6589,37.1946,38.0278
			c-8.267-7.9716-18.9242-14.0768-23.9341-24.8881c-5.0464-11.2413-8.5929-24.7264-3.2779-36.5432
			c3.6669-9.049,12.8207-16.0069,22.8781-14.7653c-0.2903,8.0101-0.2957,16.0244-0.9569,24.024
			c3.9323-2.8847,8.3739-7.6077,13.3962-3.8838c11.1854,11.122-2.9982,29.0865,8.3809,40.4258
			c7.1053,9.3779,19.4285,6.3568,29.4644,7.3932c3.026,5.1235-2.924,8.3215-5.4659,12.0101
			c-6.3732,6.8044-7.3986,18.2971-1.3815,25.6697c6.5266,9.0578,22.0132,10.0597,24.0688,22.5755
			c0.8829,6.3652-6.2037,8.1807-11.0131,8.9526c6.6558,4.2547,13.3185,8.5557,19.5222,13.4564
			c-3.8079,9.686-16.2222,12.0388-25.3339,9.7169c-12.2803-2.6688-20.5331-13.1243-26.7172-23.3039
			c-6.1932-10.4908-4.97-22.9987-6.0982-34.6409c-5.9362,18.1338-4.6188,40.7165,10.3205,54.2475
			c6.1853,6.8547,17.419,10.3726,19.1705,20.3674c0.3083,7.4556-8.2159,9.2226-13.8973,10.3056
			c3.8707,10.7934,14.7086,18.0366,26.2427,16.631c7.3988-0.8112,11.312-7.9744,15.2585-13.3428
			c-4.5748,1.1341-9.8876,3.6582-14.3994,0.8709c-5.7191-3.0033-7.9595-11.0869-4.1519-16.4344
			c3.7697-6.8574,14.4911-7.1176,18.9042-0.7727c6.2374,10.7356,3.1066,26.6482-7.5292,33.1337
			c12.4166-1.0047,24.3026,10.0286,25.5667,22.3801c0.1592,7.7271-8.6675,13.8184-15.7479,10.4864
			c-6.2236-2.0881-9.1625-9.9448-6.301-15.7361c2.0118-4.9069,7.7936-5.9877,12.1613-7.7592
			c-6.3483-2.0234-13.7245-5.5185-20.1871-1.8258c-10.1574,5.6423-14.6681,17.8726-11.4553,28.8798
			c5.2329-2.4633,13.1678-6.0441,17.3006,0.1688c4.4578,9.1155-2.5626,18.5645-3.5376,27.7457
			c-4.1328,19.7279,8.0753,38.772,23.5364,49.9534c-5.9303-10.0818-14.2719-19.482-15.4279-31.6095
			c-0.9803-11.8704-0.4493-25.1799,7.917-34.5572c6.0067-7.2341,17.4331-12.6277,26.207-7.0297
			c-2.1383,7.6111-5.0005,15.007-7.8843,22.3613c3.1725-1.6083,7.6544-3.48,11.0204-2.1658
			c3.366-1.3142,7.848,0.5575,11.0204,2.1658c-2.8837-7.3543-5.746-14.7502-7.8843-22.3613
			c8.7739-5.598,20.2003-0.2044,26.207,7.0297c8.3663,9.3773,8.8973,22.6868,7.917,34.5572
			c-1.156,12.1275-9.4976,21.5276-15.4279,31.6095c15.4611-11.1813,27.6692-30.2255,23.5364-49.9534
			c-0.975-9.1812-7.9954-18.6302-3.5376-27.7457c4.1328-6.213,12.0677-2.6321,17.3006-0.1688
			c3.2128-11.0071-1.2979-23.2374-11.4553-28.8798c-6.4626-3.6927-13.8388-0.1976-20.1871,1.8258
			c4.3677,1.7715,10.1495,2.8522,12.1613,7.7592c2.8615,5.7913-0.0774,13.648-6.301,15.7361
			c-7.0804,3.332-15.9072-2.7593-15.7479-10.4864c1.264-12.3516,13.1501-23.3848,25.5667-22.3801
			c-10.6357-6.4855-13.7665-22.3981-7.5292-33.1337c4.4131-6.3449,15.1345-6.0847,18.9042,0.7727
			c3.8076,5.3475,1.5671,13.4312-4.1519,16.4344c-4.5118,2.7873-9.8246,0.2632-14.3994-0.8709
			c3.9466,5.3685,7.8597,12.5316,15.2585,13.3428c11.5341,1.4056,22.372-5.8376,26.2427-16.631
			c-5.6814-1.083-14.2056-2.85-13.8973-10.3056c1.7515-9.9948,12.9852-13.5128,19.1705-20.3674
			c14.9393-13.531,16.2567-36.1137,10.3205-54.2475c-1.1282,11.6422,0.095,24.1501-6.0982,34.6409
			c-6.1841,10.1796-14.4368,20.6351-26.7172,23.3039c-9.1116,2.3218-21.526-0.0309-25.3338-9.7169
			c6.2036-4.9006,12.8663-9.2017,19.5221-13.4564c-4.8094-0.7719-11.896-2.5874-11.0131-8.9526
			c2.0556-12.5158,17.5422-13.5177,24.0688-22.5755c6.0171-7.3726,4.9917-18.8654-1.3815-25.6697
			c-2.5419-3.6887-8.4919-6.8866-5.4659-12.0101c10.0359-1.0365,22.3591,1.9846,29.4644-7.3932
			c11.379-11.3392-2.8046-29.3037,8.3809-40.4258c5.0223-3.724,9.464,0.9991,13.3962,3.8838
			c-0.6612-7.9996-0.6666-16.0139-0.9569-24.024c10.0573-1.2416,19.2111,5.7162,22.8781,14.7653
			c5.315,11.8168,1.7685,25.3019-3.2779,36.5432c-5.0099,10.8113-15.6671,16.9166-23.9341,24.8881
			c16.9581-6.369,34.2413-18.9217,37.1946-38.0278c2.53-9.5649-1.4909-20.8553,4.7195-29.2597
			c5.5435-6.0515,13.0092-0.0867,17.4214,4.1394c6.4027-9.3037,5.8647-22.2103-1.9404-30.5755
			c-4.9395-5.4422-12.7931-4.8064-19.464-4.6649c4.3888,3.8152,10.2363,8.3239,8.5233,14.9807
			c-1.5142,10.1158-17.225,12.7319-21.5243,3.2279c-3.8903-6.6862,0.8265-13.7905,6.1557-17.7904
			c7.905-7.3912,20.8798-8.1934,29.3588-1.3466c13.6239,10.5486,17.6925,29.5094,15.0978,45.8562
			c-3.5803,19.6843-19.1975,34.3824-35.7116,44.2188c-10.7698,6.9789-22.968,11.0524-34.488,16.5353
			c19.2219-0.9601,36.4242-10.7117,54.9855-14.5186c14.551-0.7637,26.7253,8.7804,39.3048,14.6913
			c-1.3394,3.6725-2.2499,7.58-4.3287,10.9422c-3.3622,4.9023-9.3964,6.6647-14.3513,9.3759
			c7.1925,2.6841,14.802,5.431,20.0228,11.3325c6.4785,6.8812,10.1089,15.4348,13.6072,24.0621
			c9.2861,0.6611,18.5428,1.4705,27.0894,5.5056c7.226,3.1417,12.1898,9.5298,16.9652,15.5409
			c1.0474-5.5503,0.8588-11.8337,4.4822-16.5463c2.5553-3.0161,5.9901-5.0895,9.069-7.4982
			c9.5089,10.1372,22.3479,18.7664,26.1182,32.8412c2.1152,18.8293-1.8433,38.2031,3.1835,56.7809
			c1.6545-12.6506,1.7593-25.5106,5.0686-37.9098c4.2517-18.7455,13.4045-38.1402,31.019-47.6281
			c14.7449-7.5192,34.0349-9.509,48.2772,0.1884c9.1318,5.9483,12.3783,18.536,7.7917,28.3381
			c-2.1573,6.3043-7.4563,12.9857-15.0175,11.3519c-10.3674-1.1519-12.7343-16.9023-3.5815-21.4683
			c5.8018-3.6862,11.8967,0.4818,16.8815,3.4768c-1.9269-6.3881-3.7491-14.0538-10.4513-17.0698
			c-10.3677-4.8382-22.8088-1.3614-29.6787,7.6029c5.3828,2.8903,13.3627,8.1474,9.3204,15.2896
			c-6.074,8.5035-18.0543,8.1684-26.3693,13.5302c-17.2584,8.713-23.856,29.0292-24.6729,47.1255
			c5.0267-10.3257,7.54-22.348,16.274-30.4536c9.1317-8.2731,20.8608-15.8132,33.7417-14.4099
			c9.7393,0.6912,19.1853,7.2469,21.1123,17.1956c-7.7078,2.1992-15.3315,4.6706-23.1439,6.5137
			c3.9586,2.8484,9.823,5.6132,7.8334,11.5405c-7.1212,14.0748-28.5895,6.1368-35.8574,20.463
			c-6.7231,9.6555-0.0419,20.442,2.0736,30.3069c-3.9376,4.4612-8.8177-0.2094-13.1113-1.487
			c-8.4408-3.9586-19.6879-1.3824-24.8403,6.6185c-6.5977,9.0062-2.7648,24.0444-14.0328,29.8671
			c-5.7808,2.8066-9.6974-3.3721-11.9176-7.7076c-1.9897,7.6447-4.0214,15.3105-6.7651,22.7249
			c-10.3885-0.6283-16.4625-11.7081-17.0699-21.0912c-1.2566-12.504,6.1368-23.5837,13.9072-32.6108
			c8.0636-9.1319,20.3373-11.8337,31.061-16.5043c-19.0806-0.0419-40.151,8.1893-48.4032,26.5787
			c-4.6078,8.0009-4.4822,19.7718-13.4465,24.5262c-6.9954,2.5971-11.3101-4.9639-14.0957-10.0325
			c-9.0691,7.0165-12.6086,19.5623-7.7075,30.0975c3.0577,6.7861,11.0796,8.2941,17.4049,10.3886
			c-2.4923-4.0005-6.5347-8.2732-5.278-13.4255c1.089-6.3672,8.0846-10.996,14.347-9.0272
			c7.6866,1.4662,11.2472,11.5824,6.5765,17.7401c-8.2826,9.2496-24.3839,11.1893-33.8385,3.0782
			c4.7924,11.4984-2.028,26.2122-13.3843,31.2312c-7.2997,2.5392-15.8206-3.9731-14.8396-11.7367
			c0.0627-6.5643,6.6268-11.7871,13.0189-10.8553c5.2885,0.397,8.1029,5.5618,11.1375,9.1683
			c-0.0374-6.6629,1.0072-14.7581-4.5017-19.7633c-8.505-7.9167-21.5306-8.4272-31.0062-1.9703
			c3.9597,4.2156,9.8174,10.6556,5.1857,16.506c-7.2919,7.0565-18.4479,3.2995-27.481,5.2094
			c-20.0395,2.1657-34.379,19.6613-40.2354,37.8209c7.7559-8.7556,14.1182-19.5936,25.295-24.4407
			c10.9865-4.6005,23.8087-8.2083,35.3123-3.1492c8.7362,3.4772,17.3967,12.6777,14.7841,22.752
			c-7.8994,0.3183-15.8177-0.1183-23.7032-0.5884c2.51,2.5202,5.675,6.2044,5.4653,9.8118c2.29,2.7952,1.8949,7.6361,1.3457,11.1503
			c6.1033-5.0152,12.2527-10.0228,18.8304-14.4084c8.0353,6.6146,6.4366,19.1484,1.4127,27.0966
			c-6.333,10.8546-18.8269,15.4725-30.4193,18.2083c-11.8912,2.6482-23.4089-2.3802-34.83-4.9048
			c15.4119,11.2492,37.2964,16.9748,54.7816,6.948c8.4305-3.7644,15.2477-13.3611,25.2946-11.9384
			c7.186,2.0107,6.2324,10.6638,5.5068,16.4017c11.4612-0.3459,21.699-8.4151,23.9264-19.819
			c1.5149-7.2874-4.0885-13.2225-7.9746-18.6349c-0.3351,4.7014,0.4237,10.5341-3.6215,13.9638
			c-4.6235,4.511-13.0039,4.1439-16.913-1.1299c-5.3569-5.7042-2.2913-15.9813,5.1067-18.2177
			c12.1377-2.6146,26.304,5.2802,29.1854,17.3995c2.8813-12.1193,17.0476-20.0142,29.1853-17.3995
			c7.3981,2.2364,10.4636,12.5134,5.1067,18.2177c-3.9091,5.2737-12.2894,5.6409-16.913,1.1299
			c-4.0452-3.4297-3.2864-9.2624-3.6215-13.9638c-3.8861,5.4124-9.4895,11.3475-7.9746,18.6349
			c2.2274,11.4039,12.4652,19.4731,23.9264,19.819c-0.7256-5.738-1.6792-14.3911,5.5068-16.4017
			c10.0469-1.4227,16.864,8.174,25.2946,11.9384c17.4852,10.0268,39.3698,4.3012,54.7816-6.948
			c-11.421,2.5246-22.9387,7.553-34.83,4.9048c-11.5924-2.7357-24.0863-7.3536-30.4193-18.2083
			c-5.0239-7.9482-6.6226-20.482,1.4127-27.0966c6.5778,4.3856,12.7272,9.3932,18.8304,14.4084
			c-0.7522-4.8126-1.2153-12.1133,5.1111-13.2406c12.5386-1.9126,18.277,12.5065,28.9083,15.9146
			c8.8711,3.4443,19.4845-1.0823,23.9865-9.2463c2.7227-3.5573,3.9254-10.2043,9.7333-8.9097
			c4.087,9.2244,5.0219,21.878,16.1364,25.7376c14.3005,7.3181,27.0029-11.7226,41.037-4.5215
			c5.0938,3.6258,1.9744,9.3095,0.446,13.9407c7.4038-3.1008,15.0242-5.5826,22.5525-8.3339
			c4.2888,9.1813,0.5001,20.0372-6.9729,26.321c-9.5959,8.7065-23.517,9.5006-35.7676,8.175
			c-11.8302-1.4238-20.9299-9.6727-31.066-15.0718c11.2976,14.16,28.5768,26.7183,47.6604,23.623
			c9.8785-0.5496,19.3739-7.8625,29.286-4.5532c7.4684,3.4021,4.1025,12.3456,1.4467,17.8478
			c10.8269,3.2144,22.9357-1.2856,28.4794-11.2937c3.6495-6.3795,0.6179-13.6522-1.5781-19.9529
			c-2.2722,5.353-4.7533,12.3075-11.6136,12.7354c-10.0885,1.686-17.4315-12.4476-9.7213-19.4733
			c5.1569-5.766,13.3711-3.4754,18.8219,0.3569c9.4723,5.2341,14.2446,17.326,10.3531,27.5058
			c-5.8223,16.2168-22.5978,25.9454-38.9464,28.5292c-19.8273,2.6776-38.632-7.6332-53.09-20.2994
			c-9.9653-8.0861-17.609-18.4285-26.3834-27.6904c6.8531,17.9844,21.4432,31.3314,30.7994,47.8079
			c5.2228,13.6028-0.092,28.1306-1.8263,41.921c-3.9067-0.1389-7.9043,0.2026-11.7444-0.7355
			c-5.7013-1.6828-9.2421-6.877-13.3518-10.7516c-0.3301,7.6699-0.5911,15.7558-4.5905,22.5447
			c-4.5425,8.288-11.5555,14.3837-18.6796,20.3768c2.2408,9.0359,4.3315,18.0898,3.1349,27.4648
			c-0.7549,7.8431-5.2965,14.5382-9.5377,20.9374c5.6023-0.7191,11.5199-2.8401,17.1215-0.8503
			c3.6581,1.4982,6.6915,4.1241,9.9337,6.3081c-6.7026,12.176-10.942,27.0532-23.163,34.9883
			c-17.254,7.8303-36.9028,10.0524-53.0181,20.574c12.5427-2.3357,24.8057-6.2101,37.6206-6.8943
			c19.1418-1.749,40.4158,0.9625,54.8824,14.783c11.7076,11.6997,19.5609,29.4308,14.7393,45.9727
			c-2.8352,10.5231-13.8036,17.5004-24.5433,16.1672c-6.6624-0.1035-14.6542-3.0785-15.437-10.7744
			c-2.1082-10.2161,12.14-17.3341,19.3108-10.0403c5.2987,4.3787,3.2181,11.4633,1.91,17.1295
			c5.48-3.8066,12.2075-7.9084,13.0048-15.2146c1.3976-11.3553-5.7535-22.1132-16.402-25.8766
			c-1.0856,6.0125-3.6194,15.2263-11.6611,13.5889c-9.9642-3.1488-13.3477-14.6464-21.0166-20.8975
			c-13.6196-13.7213-34.9803-13.7179-52.4432-8.9027c11.3737,1.5898,23.5841,0.265,33.9919,6.0668
			c10.6901,6.1283,21.4856,14.9532,24.1313,27.6375c2.3523,9.4761-0.9635,20.4856-9.8298,25.3927
			c-4.4734-6.651-9.1797-13.1379-13.3468-19.9983c-1.4858,4.645-2.303,11.0768-8.5551,11.0161
			c-15.5865-2.4233-14.671-25.2938-30.542-27.7791c-11.2604-3.4104-19.4543,6.2771-28.1827,11.3375
			c-5.4597-2.3663-2.5258-8.4509-2.6375-12.9292c1.1566-9.2509-4.7692-19.1515-13.9706-21.5792
			c-10.6042-3.4917-23.722,4.8005-32.7417-4.1167c-4.4556-4.6305,0.2104-10.2648,3.6477-13.7161
			c-7.8855,0.47-15.8038,0.9066-23.7032,0.5884c-2.6127-10.0743,6.0479-19.2748,14.7841-22.7521
			c11.5037-5.059,24.3258-1.4512,35.3124,3.1493c11.1768,4.847,17.5391,15.6851,25.2949,24.4407
			c-5.8563-18.1597-20.1958-35.6552-40.2354-37.8209c-9.0331-1.9099-20.1891,1.847-27.481-5.2094
			c-4.6317-5.8505,1.226-12.2905,5.1857-16.5061c-9.4756-6.4569-22.5012-5.9464-31.0062,1.9703
			c-5.5089,5.0051-4.4644,13.1005-4.5017,19.7633c3.0345-3.6066,5.849-8.7714,11.1375-9.1683
			c6.3921-0.9319,12.9561,4.291,13.0189,10.8553c0.981,7.7635-7.5399,14.2759-14.8396,11.7367
			c-11.3564-5.019-18.1766-19.7328-13.3843-31.2312c-9.4546,8.1111-25.5558,6.1714-33.8386-3.0782
			c-4.6707-6.1577-1.1101-16.2739,6.5766-17.7401c6.2625-1.9688,13.2581,2.66,14.347,9.0272
			c1.2567,5.1523-2.7856,9.425-5.278,13.4255c6.3253-2.0945,14.3472-3.6025,17.4049-10.3885
			c4.9011-10.5352,1.3615-23.0811-7.7075-30.0975c-2.7856,5.0686-7.1003,12.6296-14.0957,10.0325
			c-8.9644-4.7544-8.8387-16.5253-13.4465-24.5261c-8.2523-18.3895-29.3226-26.6207-48.4032-26.5788
			c10.7237,4.6707,22.9974,7.3725,31.061,16.5044c7.7704,9.0271,15.1639,20.1069,13.9072,32.6108
			c-0.6074,9.3832-6.6813,20.4629-17.0699,21.0913c-2.7438-7.4144-4.7754-15.0802-6.7651-22.725
			c-1.6213,3.1659-4.1471,7.3146-7.6427,8.2299c-1.9507,3.0417-6.6769,4.1619-10.1888,4.7255
			c6.6558,4.2548,13.3185,8.5558,19.5221,13.4564c-3.8078,9.6859-16.2222,12.0387-25.3338,9.7169
			c-12.2803-2.6688-20.5331-13.1243-26.7172-23.304c-6.1932-10.4908-4.97-22.9987-6.0982-34.6409
			c-5.9362,18.1338-4.6188,40.7166,10.3204,54.2474c6.1854,6.8547,17.4191,10.3727,19.1706,20.3674
			c0.3083,7.4556-8.2159,9.2227-13.8973,10.3057c3.8706,10.7933,14.7086,18.0366,26.2426,16.631
			c7.3989-0.8112,11.312-7.9744,15.2585-13.3429c-4.5748,1.1342-9.8875,3.6582-14.3994,0.871
			c-5.719-3.0033-7.9595-11.0869-4.1519-16.4344c3.7697-6.8574,14.4911-7.1176,18.9041-0.7727
			c6.2374,10.7356,3.1066,26.6482-7.5292,33.1337c12.4166-1.0048,24.3027,10.0286,25.5667,22.3801
			c0.1592,7.7271-8.6675,13.8184-15.7479,10.4865c-6.2236-2.0883-9.1625-9.9449-6.301-15.7362
			c2.0118-4.907,7.7936-5.9877,12.1613-7.7592c-6.3483-2.0234-13.7245-5.5186-20.1871-1.8258
			c-10.1575,5.6423-14.6681,17.8727-11.4553,28.8798c5.2329-2.4633,13.1678-6.0441,17.3006,0.1688
			c4.4578,9.1155-2.5626,18.5645-3.5376,27.7457c-4.1329,19.7279,8.0753,38.772,23.5364,49.9534
			c-5.9303-10.0819-14.2719-19.4819-15.4279-31.6095c-0.9803-11.8705-0.4493-25.1799,7.917-34.5573
			c6.0067-7.2341,17.4331-12.6276,26.207-7.0297c-2.1383,7.6111-5.0005,15.007-7.8843,22.3612
			c4.3445-2.2025,11.1449-4.899,14.172,0.7694c5.6936,11.3339-6.2465,21.2471-6.2026,32.4114
			c-0.5344,9.5012,7.0504,18.1964,16.2059,19.9552c4.2246,1.4901,10.9181,0.58,11.4814,6.5037
			c-7.5099,6.7374-19.2554,11.5366-19.4916,23.2999c-2.5408,15.8621,19.4933,22.0587,16.9814,37.6312
			c-1.8743,5.9648-8.2438,4.7545-13.1206,4.7322c5.2369,6.0831,9.952,12.5637,14.8951,18.8734
			c-7.4067,6.916-18.9021,6.6675-27.1876,1.502c-11.2457-6.4359-16.3028-19.4302-18.8277-31.4907
			c-2.3016-11.6913,2.7316-22.8947,4.7343-34.203c-9.9758,15.1202-16.58,35.4344-7.739,52.6276
			c3.5754,9.2253,13.4647,15.996,13.3802,26.4457c-0.9278,8.1542-10.4736,7.7168-16.5273,6.8911
			c0.2887,11.2903,8.3102,21.4159,19.5416,23.5956c7.195,1.4995,13.175-3.6311,18.4887-7.6666
			c-5.7932-0.507-13.174-0.7175-15.7009-7.1099c-4.721-9.0739,6.4517-20.4249,15.5162-15.2631
			c7.0773,3.1227,7.4371,11.6426,5.4768,18.011c-2.0509,10.626-12.0762,18.9015-22.9603,18.3462
			c-17.2223-0.5261-31.6588-13.4742-39.168-28.2242c-8.6736-18.0294-4.6783-39.1,2.9002-56.7645
			c4.6108-11.9763,12.085-22.4419,18.1822-33.6489c-14.9865,12.0752-23.1716,30.0757-35.9505,44.0656
			c-11.3231,9.1707-26.7822,8.6052-40.4335,11.2173c-1.0751-3.7584-2.6352-7.4548-2.9296-11.3969
			c-0.1614-5.9423,3.6844-10.9148,6.0995-16.0208c-7.3965,2.0562-15.1673,4.3066-22.8599,2.601
			c-9.286-1.759-17.2506-6.5452-25.1519-11.4686c-7.9012,4.9235-15.8658,9.7096-25.1519,11.4686
			c-7.6926,1.7057-15.4633-0.5448-22.8599-2.601c2.4151,5.106,6.2609,10.0785,6.0995,16.0208
			c-0.2944,3.942-1.8546,7.6384-2.9296,11.3969c-13.6514-2.6121-29.1104-2.0466-40.4335-11.2173
			c-12.7789-13.9899-20.964-31.9904-35.9505-44.0656c6.0972,11.207,13.5714,21.6726,18.1822,33.6489
			c7.5786,17.6646,11.5738,38.7351,2.9002,56.7645c-7.5092,14.75-21.9457,27.6981-39.168,28.2242
			c-10.8841,0.5553-20.9094-7.7202-22.9603-18.3462c-1.9603-6.3684-1.6005-14.8883,5.4769-18.011
			c9.0645-5.1619,20.2372,6.1892,15.5162,15.2631c-2.5269,6.3923-9.9078,6.6029-15.7009,7.1099
			c5.3137,4.0355,11.2937,9.1661,18.4887,7.6666c11.2314-2.1797,19.2529-12.3053,19.5416-23.5956
			c-6.0536,0.8257-15.5995,1.2631-16.5273-6.8911c-0.0844-10.4497,9.8049-17.2203,13.3802-26.4457
			c8.841-17.1931,2.2369-37.5073-7.739-52.6276c2.0026,11.3083,7.0358,22.5117,4.7343,34.203
			c-2.5249,12.0605-7.582,25.0548-18.8277,31.4907c-8.2855,5.1655-19.7808,5.4141-27.1875-1.502
			c4.9431-6.3097,9.6581-12.7903,14.8951-18.8734c-4.8768,0.0223-11.2463,1.2327-13.1206-4.7322
			c-2.5118-15.5725,19.5222-21.7692,16.9814-37.6312c-0.2361-11.7633-11.9816-16.5625-19.4915-23.2999
			c0.5634-5.9237,7.2568-5.0135,11.4814-6.5037c9.1555-1.7588,16.7404-10.454,16.206-19.9552
			c0.0439-11.1643-11.8962-21.0775-6.2026-32.4114c3.027-5.6685,9.8274-2.9719,14.1719-0.7694
			c-2.8837-7.3542-5.746-14.7501-7.8843-22.3612c8.7739-5.5979,20.2003-0.2045,26.207,7.0297
			c8.3663,9.3773,8.8973,22.6868,7.917,34.5573c-1.156,12.1276-9.4976,21.5276-15.4279,31.6095
			c15.4611-11.1814,27.6693-30.2255,23.5364-49.9534c-0.975-9.1813-7.9954-18.6302-3.5376-27.7457
			c4.1328-6.2129,12.0677-2.6321,17.3006-0.1688c3.2128-11.0071-1.2979-23.2374-11.4553-28.8798
			c-6.4626-3.6927-13.8388-0.1976-20.1871,1.8258c4.3677,1.7715,10.1495,2.8522,12.1613,7.7592
			c2.8615,5.7913-0.0774,13.6479-6.301,15.7362c-7.0804,3.3319-15.9072-2.7594-15.7479-10.4865
			c1.264-12.3516,13.1501-23.3849,25.5667-22.3801c-10.6358-6.4855-13.7666-22.3981-7.5292-33.1337
			c4.413-6.3448,15.1344-6.0847,18.9041,0.7727c3.8076,5.3475,1.5671,13.4312-4.1519,16.4344
			c-4.5119,2.7872-9.8246,0.2632-14.3994-0.871c3.9465,5.3685,7.8597,12.5317,15.2585,13.3429
			c11.534,1.4056,22.372-5.8376,26.2426-16.631c-5.6814-1.083-14.2056-2.8501-13.8973-10.3057
			c1.7515-9.9948,12.9852-13.5127,19.1706-20.3674c14.9393-13.5309,16.2566-36.1136,10.3204-54.2474
			c-1.1282,11.6422,0.095,24.15-6.0981,34.6409c-6.1841,10.1797-14.4369,20.6351-26.7172,23.304
			c-9.1116,2.3218-21.526-0.031-25.3338-9.7169c6.2036-4.9006,12.8663-9.2017,19.5221-13.4564
			c-3.5119-0.5636-8.238-1.6837-10.1887-4.7255c-3.4957-0.9153-6.0215-5.064-7.6428-8.2299
			c-1.9897,7.6448-4.0213,15.3105-6.7651,22.725c-10.3886-0.6284-16.4625-11.7081-17.0699-21.0913
			c-1.2567-12.5039,6.1368-23.5837,13.9072-32.6108c8.0636-9.1319,20.3373-11.8337,31.061-16.5044
			c-19.0806-0.0419-40.1509,8.1893-48.4032,26.5788c-4.6078,8.0009-4.4821,19.7717-13.4465,24.5261
			c-6.9954,2.5972-11.3101-4.9639-14.0957-10.0325c-9.069,7.0165-12.6086,19.5624-7.7076,30.0975
			c3.0579,6.786,11.0797,8.2941,17.405,10.3885c-2.4923-4.0005-6.5346-8.2732-5.278-13.4255
			c1.0891-6.3672,8.0847-10.996,14.3471-9.0272c7.6867,1.4662,11.2473,11.5824,6.5766,17.7401
			c-8.2827,9.2496-24.3839,11.1893-33.8386,3.0782c4.7925,11.4984-2.0278,26.2122-13.3842,31.2312
			c-7.2997,2.5392-15.8205-3.9731-14.8395-11.7367c0.0627-6.5643,6.6267-11.7872,13.0188-10.8553
			c5.2885,0.397,8.103,5.5618,11.1375,9.1683c-0.0373-6.6628,1.0073-14.7582-4.5017-19.7633
			c-8.505-7.9167-21.5306-8.4272-31.0061-1.9703c3.9597,4.2156,9.8173,10.6556,5.1856,16.5061
			c-7.2919,7.0564-18.4479,3.2994-27.481,5.2094c-20.0394,2.1658-34.379,19.6613-40.2353,37.8209
			c7.7559-8.7556,14.1182-19.5936,25.295-24.4407c10.9865-4.6005,23.8086-8.2083,35.3123-3.1493
			c8.7362,3.4773,17.3967,12.6777,14.7841,22.7521c-7.8994,0.3182-15.8177-0.1184-23.7032-0.5884
			c3.4372,3.4513,8.1032,9.0856,3.6476,13.7161c-9.0197,8.9172-22.1375,0.625-32.7416,4.1167
			c-9.2014,2.4277-15.1271,12.3284-13.9706,21.5792c-0.1117,4.4783,2.8223,10.5629-2.6374,12.9292
			c-8.7284-5.0604-16.9223-14.7479-28.1828-11.3375c-15.8708,2.4852-14.9554,25.3557-30.5419,27.7791
			c-6.2521,0.0607-7.0693-6.3711-8.555-11.0161c-4.1671,6.8604-8.8735,13.3473-13.3468,19.9983
			c-8.8663-4.9071-12.1822-15.9166-9.83-25.3927c2.6458-12.6842,13.4413-21.5092,24.1315-27.6375
			c10.4078-5.8018,22.6182-4.4769,33.9919-6.0668c-17.463-4.8152-38.8237-4.8186-52.4433,8.9027
			c-7.6689,6.2511-11.0523,17.7487-21.0166,20.8975c-8.0418,1.6375-10.5756-7.5764-11.6611-13.5889
			c-10.6485,3.7634-17.7996,14.5212-16.402,25.8766c0.7973,7.3062,7.5247,11.408,13.0047,15.2146
			c-1.3081-5.6663-3.3887-12.7509,1.91-17.1295c7.1708-7.2938,21.4189-0.1758,19.3108,10.0403
			c-0.7828,7.6959-8.7746,10.6709-15.437,10.7744c-10.7397,1.3331-21.7081-5.6442-24.5434-16.1672
			c-4.8216-16.5419,3.0317-34.2729,14.7393-45.9727c14.4667-13.8204,35.7406-16.532,54.8824-14.783
			c12.815,0.6842,25.0779,4.5586,37.6207,6.8943c-16.1153-10.5216-35.764-12.7437-53.0181-20.574
			c-12.2208-7.9351-16.4602-22.8123-23.1629-34.9883c3.2422-2.184,6.2756-4.8099,9.9337-6.3081
			c5.6016-1.9897,11.5192,0.1312,17.1215,0.8503c-4.2412-6.3992-8.7828-13.0942-9.5377-20.9374
			c-1.1966-9.375,0.8941-18.4288,3.1349-27.4648c-7.124-5.9931-14.1371-12.0889-18.6796-20.3768
			c-3.9994-6.7889-4.2603-14.8748-4.5905-22.5447c-4.1096,3.8747-7.6504,9.0688-13.3517,10.7516
			c-3.8401,0.9381-7.8376,0.5966-11.7443,0.7355c-1.7343-13.7903-7.0492-28.3181-1.8264-41.921
			c9.3563-16.4765,23.9464-29.8235,30.7995-47.8079c-8.7744,9.262-16.418,19.6044-26.3834,27.6904
			c-14.458,12.6663-33.2627,22.9771-53.09,20.2994c-16.3486-2.5837-33.1241-12.3124-38.9464-28.5292
			c-3.8915-10.1798,0.8809-22.2717,10.3531-27.5058c5.4509-3.8323,13.6651-6.1229,18.8219-0.3569
			c7.7103,7.0258,0.3673,21.1593-9.7213,19.4733c-6.8604-0.4279-9.3414-7.3824-11.6137-12.7354
			c-2.196,6.3007-5.2276,13.5734-1.5781,19.9529c5.5438,10.0081,17.6525,14.5081,28.4794,11.2937
			c-2.6559-5.5022-6.0217-14.4457,1.4467-17.8478c9.9121-3.3094,19.4074,4.0036,29.286,4.5532
			c19.0837,3.0953,36.3628-9.463,47.6604-23.623c-10.136,5.3991-19.2358,13.648-31.0661,15.0718
			c-12.2505,1.3256-26.1715,0.5315-35.7675-8.175c-7.473-6.2838-11.2616-17.1396-6.9729-26.321
			c7.5284,2.7513,15.1488,5.233,22.5525,8.3339c-1.5283-4.6312-4.6477-10.3149,0.446-13.9407
			c14.0341-7.201,26.7365,11.8397,41.037,4.5215c11.1146-3.8596,12.0494-16.5132,16.1364-25.7376
			c5.8079-1.2947,7.0107,5.3524,9.7333,8.9097c4.5019,8.1639,15.1153,12.6906,23.9864,9.2463
			c10.6313-3.4081,16.3698-17.8272,28.9083-15.9146c6.3264,1.1273,5.8633,8.428,5.1111,13.2406
			c6.1032-5.0152,12.2526-10.0228,18.8304-14.4084c8.0352,6.6146,6.4366,19.1484,1.4127,27.0966
			c-6.333,10.8546-18.827,15.4725-30.4193,18.2083c-11.8912,2.6482-23.4089-2.3802-34.83-4.9048
			c15.4119,11.2492,37.2964,16.9748,54.7816,6.948c8.4306-3.7644,15.2477-13.3611,25.2946-11.9384
			c7.186,2.0107,6.2324,10.6638,5.5068,16.4017c11.4612-0.3459,21.699-8.4151,23.9263-19.819
			c1.5149-7.2874-4.0884-13.2225-7.9746-18.6349c-0.3351,4.7014,0.4238,10.5341-3.6213,13.9638
			c-4.6236,4.511-13.0039,4.1439-16.9131-1.1299c-5.3569-5.7042-2.2913-15.9813,5.1068-18.2177
			c12.1376-2.6146,26.3039,5.2802,29.1853,17.3995c2.8814-12.1193,17.0477-20.0142,29.1853-17.3995
			c7.3981,2.2364,10.4637,12.5134,5.1068,18.2177c-3.9092,5.2737-12.2895,5.6409-16.9131,1.1299
			c-4.0451-3.4297-3.2863-9.2624-3.6213-13.9638c-3.8862,5.4124-9.4895,11.3475-7.9746,18.6349
			c2.2274,11.4039,12.4651,19.4731,23.9263,19.819c-0.7256-5.738-1.6792-14.3911,5.5068-16.4017
			c10.0469-1.4227,16.864,8.174,25.2946,11.9384c17.4852,10.0268,39.3698,4.3012,54.7816-6.948
			c-11.421,2.5246-22.9387,7.553-34.83,4.9048c-11.5923-2.7357-24.0863-7.3536-30.4193-18.2083
			c-5.0239-7.9482-6.6225-20.482,1.4127-27.0966c6.5778,4.3856,12.7272,9.3932,18.8304,14.4084
			c-0.5493-3.5142-0.9444-8.3552,1.3457-11.1503c-0.2098-3.6074,2.9554-7.2916,5.4653-9.8118
			c-7.8854,0.47-15.8038,0.9067-23.7032,0.5884c-2.6127-10.0743,6.0479-19.2747,14.7841-22.752
			c11.5037-5.0591,24.3258-1.4513,35.3123,3.1492c11.1768,4.847,17.5391,15.6851,25.295,24.4407
			c-5.8563-18.1597-20.1959-35.6552-40.2353-37.8209c-9.0331-1.9099-20.1891,1.847-27.481-5.2094
			c-4.6318-5.8505,1.2258-12.2904,5.1856-16.506c-9.4756-6.4569-22.5012-5.9464-31.0062,1.9703
			c-5.509,5.0052-4.4644,13.1004-4.5017,19.7633c3.0345-3.6066,5.8489-8.7713,11.1375-9.1683
			c6.3921-0.9318,12.9561,4.291,13.0189,10.8553c0.9809,7.7635-7.5399,14.2759-14.8396,11.7367
			c-11.3564-5.019-18.1766-19.7328-13.3842-31.2312c-9.4547,8.1111-25.5559,6.1714-33.8386-3.0782
			c-4.6707-6.1577-1.1101-16.2739,6.5766-17.7401c6.2624-1.9688,13.2581,2.66,14.3471,9.0272
			c1.2566,5.1523-2.7856,9.425-5.278,13.4255c6.3252-2.0945,14.347-3.6025,17.4049-10.3886
			c4.9011-10.5352,1.3615-23.0809-7.7076-30.0975c-2.7856,5.0686-7.1003,12.6296-14.0957,10.0325
			c-8.9644-4.7544-8.8387-16.5253-13.4465-24.5262c-8.2523-18.3894-29.3226-26.6207-48.4032-26.5787
			c10.7237,4.6707,22.9974,7.3724,31.061,16.5043c7.7704,9.0272,15.1639,20.1069,13.9072,32.6108
			c-0.6074,9.3832-6.6813,20.463-17.0699,21.0912c-2.7438-7.4144-4.7754-15.0801-6.7651-22.7249
			c-2.2203,4.3355-6.1368,10.5142-11.9176,7.7076c-11.2681-5.8226-7.4353-20.8608-14.0329-29.8671
			c-5.1524-8.0009-16.3995-10.5771-24.8403-6.6185c-4.2936,1.2776-9.1738,5.9482-13.1115,1.487
			c2.1155-9.8649,8.7969-20.6514,2.0736-30.3069c-7.2679-14.3262-28.7361-6.3881-35.8573-20.463
			c-1.9897-5.9273,3.8747-8.692,7.8333-11.5405c-7.8124-1.8431-15.4361-4.3146-23.1439-6.5137
			c1.927-9.9487,11.373-16.5045,21.1123-17.1956c12.8809-1.4033,24.61,6.1368,33.7417,14.4099
			c8.734,8.1056,11.2473,20.1278,16.274,30.4536c-0.8169-18.0963-7.4144-38.4125-24.6729-47.1255
			c-8.3149-5.3618-20.2953-5.0267-26.3692-13.5302c-4.0423-7.1422,3.9376-12.3993,9.3203-15.2896
			c-6.8698-8.9643-19.3109-12.4411-29.6786-7.6029c-6.7023,3.016-8.5244,10.6817-10.4513,17.0698
			c4.9847-2.9951,11.0797-7.163,16.8814-3.4768c9.1528,4.5659,6.7859,20.3163-3.5815,21.4683
			c-7.5612,1.6337-12.8602-5.0476-15.0175-11.3519c-4.5866-9.8021-1.3402-22.3898,7.7917-28.3381
			c14.2424-9.6974,33.5324-7.7076,48.2773-0.1884c17.6144,9.4879,26.7673,28.8826,31.019,47.6281
			c3.3093,12.3992,3.4141,25.2592,5.0686,37.9098c5.0267-18.5779,1.0682-37.9517,3.1835-56.7809
			c3.7702-14.0748,16.6092-22.704,26.1181-32.8412c3.0789,2.4087,6.5137,4.4821,9.069,7.4982
			c3.6234,4.7126,3.4349,10.996,4.4822,16.5463c4.7753-6.011,9.7393-12.3992,16.9653-15.5409
			C635.8375,601.685,645.0942,600.8756,654.3804,600.2145z M875.5823,753.5859c-1.6354,3.6882-3.0663,7.4155-3.051,11.2936
			c-0.2214,3.9365,0.9508,7.7345,3.051,10.9583c2.1002-3.2238,3.2725-7.0218,3.051-10.9583
			C878.6486,761.0013,877.2177,757.2741,875.5823,753.5859z M731.8901,857.9844c3.0023,2.6951,6.105,5.2077,9.798,6.3916
			c3.6754,1.427,7.6498,1.4858,11.3647,0.4846c-2.4169-2.9937-5.6669-5.2822-9.4791-6.288
			C739.8901,857.3597,735.9032,857.5687,731.8901,857.9844z M786.7756,1026.9047c3.491-2.0226,6.8394-4.1969,9.1066-7.3433
			c2.4929-3.0545,3.777-6.8162,3.9728-10.6588c-3.594,1.3736-6.7748,3.7573-8.9094,7.072
			C788.6536,1019.1031,787.6204,1022.9595,786.7756,1026.9047z M964.389,1026.9047c-0.8448-3.9451-1.8781-7.8015-4.1699-10.9301
			c-2.1346-3.3148-5.3154-5.6984-8.9094-7.072c0.1958,3.8425,1.4799,7.6042,3.9728,10.6588
			C957.5496,1022.7078,960.8979,1024.8821,964.389,1026.9047z M1019.2745,857.9844c-4.0131-0.4156-8.0001-0.6247-11.6837,0.5882
			c-3.8122,1.0059-7.0621,3.2944-9.4791,6.288c3.7149,1.0012,7.6893,0.9424,11.3647-0.4846
			C1013.1695,863.1921,1016.2722,860.6795,1019.2745,857.9844z M875.5823,879.0982c-1.1372-0.4918-2.2377-1.0671-3.2869-1.7211
			c-11.2457-6.4359-16.3028-19.4302-18.8277-31.4908c-2.3016-11.6912,2.7316-22.8947,4.7343-34.203
			c-9.9758,15.1203-16.58,35.4344-7.7389,52.6276c3.2855,8.4775,11.9031,14.8824,13.2129,23.9742
			c-8.2421-4.0552-11.6705-14.2302-18.7178-19.9747c-13.6196-13.7213-34.9803-13.7178-52.4433-8.9026
			c11.3737,1.5898,23.5842,0.265,33.992,6.0668c10.6901,6.1282,21.4856,14.9533,24.1314,27.6374
			c0.2979,1.1998,0.5048,2.4243,0.6212,3.6578c-0.8192,0.9295-1.7064,1.7985-2.6526,2.5941
			c-9.596,8.7065-23.517,9.5006-35.7675,8.175c-11.8303-1.4238-20.9301-9.6727-31.066-15.0718
			c11.2975,14.16,28.5767,26.7183,47.6603,23.623c9.078-0.505,17.8323-6.7216,26.8839-5.1578
			c-6.4037,6.5856-17.1401,6.7019-24.7811,11.6292c-17.2584,8.7129-23.856,29.0292-24.6729,47.1254
			c5.0267-10.3257,7.54-22.348,16.274-30.4535c9.1317-8.2731,20.8608-15.8132,33.7417-14.41
			c1.2332,0.0875,2.4617,0.2691,3.6707,0.5396c0.631,1.0663,1.1832,2.1786,1.6475,3.3243
			c5.315,11.8168,1.7685,25.3019-3.2779,36.5432c-5.0099,10.8113-15.6671,16.9166-23.9341,24.8881
			c16.9581-6.369,34.2413-18.9217,37.1946-38.0278c2.325-8.7897-0.8821-19.0366,3.4022-27.1619
			c4.2844,8.1252,1.0773,18.3721,3.4022,27.1619c2.9533,19.1061,20.2365,31.6589,37.1946,38.0278
			c-8.267-7.9716-18.9242-14.0768-23.9341-24.8881c-5.0464-11.2413-8.5929-24.7264-3.2779-36.5432
			c0.4643-1.1458,1.0165-2.258,1.6475-3.3243c1.209-0.2705,2.4376-0.4521,3.6707-0.5396c12.8809-1.4033,24.61,6.1368,33.7417,14.41
			c8.734,8.1055,11.2473,20.1277,16.274,30.4535c-0.8169-18.0962-7.4144-38.4125-24.6729-47.1254
			c-7.6411-4.9273-18.3774-5.0436-24.7811-11.6292c9.0516-1.5638,17.8058,4.6528,26.8839,5.1578
			c19.0837,3.0953,36.3628-9.463,47.6604-23.623c-10.136,5.3991-19.2358,13.648-31.0661,15.0718
			c-12.2505,1.3256-26.1715,0.5315-35.7675-8.175c-0.9462-0.7957-1.8334-1.6646-2.6525-2.5941
			c0.1163-1.2335,0.3233-2.458,0.6211-3.6578c2.6458-12.6841,13.4413-21.5092,24.1314-27.6374
			c10.4078-5.8018,22.6183-4.4769,33.992-6.0668c-17.463-4.8152-38.8237-4.8186-52.4433,8.9026
			c-7.0474,5.7445-10.4758,15.9194-18.7178,19.9747c1.3098-9.0918,9.9274-15.4966,13.2129-23.9742
			c8.8411-17.1932,2.2369-37.5073-7.7389-52.6276c2.0026,11.3083,7.0358,22.5118,4.7343,34.203
			c-2.5249,12.0606-7.582,25.0549-18.8277,31.4908C877.82,878.0311,876.7195,878.6064,875.5823,879.0982z M869.8331,896.7597
			c1.2581-2.4255,3.3234-4.4757,5.7492-5.684c2.4258,1.2083,4.4911,3.2585,5.7492,5.684c2.6956,0.447,5.2837,1.7777,7.1824,3.7114
			c-0.3995,2.6804-1.7112,5.2783-3.6292,7.2242c0.4079,2.7018-0.058,5.5744-1.3102,7.9778
			c-2.6727,0.4483-5.5487,0.0037-7.9922-1.2192c-2.4435,1.2228-5.3195,1.6675-7.9922,1.2192
			c-1.2523-2.4034-1.7181-5.276-1.3102-7.9778c-1.918-1.946-3.2297-4.5438-3.6292-7.2242
			C864.5494,898.5374,867.1375,897.2067,869.8331,896.7597z M831.0611,843.3947c0.1155-0.275,0.232-0.5491,0.3492-0.8224
			c4.6108-11.9764,12.085-22.4419,18.1822-33.6489c-9.5758,7.7156-16.3748,17.8503-23.3696,27.8122
			c-11.6358,3.5741-23.3755,6.9085-33.6725,13.6314c12.5427-2.3356,24.8056-6.21,37.6206-6.8942
			C830.4672,843.4456,830.7639,843.4196,831.0611,843.3947z M803.5455,928.079c-0.2258-0.1949-0.4506-0.3903-0.6743-0.5863
			c-9.9654-8.0861-17.609-18.4285-26.3834-27.6904c4.3788,11.4914,11.9166,21.0894,19.2294,30.8203
			c-0.1965,12.1708-0.6531,24.3663,2.5588,36.2369c1.6546-12.6506,1.7593-25.5106,5.0686-37.9098
			C803.4104,928.6595,803.4774,928.3693,803.5455,928.079z M875.5823,980.4167c-0.2551,0.1545-0.5104,0.3079-0.766,0.4601
			c-10.7697,6.9789-22.968,11.0524-34.488,16.5353c12.2821-0.6135,23.7396-4.8163,35.254-8.7642
			c11.5144,3.9478,22.9719,8.1506,35.254,8.7642c-11.5201-5.4828-23.7183-9.5564-34.488-16.5353
			C876.0927,980.7247,875.8373,980.5713,875.5823,980.4167z M947.619,928.079c0.0682,0.2903,0.1351,0.5806,0.2009,0.8707
			c3.3093,12.3992,3.414,25.2592,5.0686,37.9098c3.2119-11.8706,2.7554-24.0661,2.5588-36.2369
			c7.3128-9.7309,14.8505-19.3289,19.2294-30.8203c-8.7744,9.262-16.418,19.6044-26.3834,27.6904
			C948.0696,927.6887,947.8448,927.8841,947.619,928.079z M920.1035,843.3947c0.2972,0.0249,0.5939,0.0509,0.8901,0.078
			c12.815,0.6843,25.0779,4.5586,37.6206,6.8942c-10.297-6.7229-22.0367-10.0573-33.6725-13.6314
			c-6.9948-9.9619-13.7938-20.0966-23.3696-27.8122c6.0972,11.207,13.5714,21.6725,18.1822,33.6489
			C919.8715,842.8455,919.9879,843.1197,920.1035,843.3947z M768.4985,757.2847c10.765-2.0788,21.752-3.8268,31.8338,1.0663
			c15.3974,10.0218,29.0453,22.9149,46.1353,30.1796c-18.1368-16.3357-38.331-32.9752-46.162-57.0459
			c-7.5143-21.7489,1.8154-49.3659,22.4392-60.1021c-22.9957,3.4366-46.7764-13.4221-53.4808-35.4342
			c-7.813-24.0767-1.256-49.4081,3.8151-73.2845c-9.556,15.9225-13.019,34.3752-19.5851,51.5334
			c-7.3078,13.68-23.4952,18.0883-36.3121,25.0012c-2.3667-3.764-5.2487-7.3652-6.5333-11.6805
			c-1.0406-5.3373,0.6476-10.6688,1.5486-15.8817c-6.2966,4.6711-13.1773,9.1743-21.1921,9.9836
			c-7.6755,0.9593-15.1286-0.3008-22.5377-2.0165c-0.6578,7.5767-1.7625,15.0544-5.0468,22.0578
			c-3.2463,7.3725-9.6555,12.5248-16.0437,17.0698c5.2362,0.754,10.8285,0.7959,15.5829,3.4349
			c3.7072,2.5552,6.2416,6.4091,9.09,9.8231c-10.5352,10.0534-19.7299,24.0864-34.9986,26.8091
			c-18.3475,0.9426-36.9672-1.4661-55.0634,2.7019c24.2749,2.5552,50.3927,4.147,70.8766,19.0177
			c18.8629,13.1785,27.5479,41.0049,17.1734,61.813c16.5839-16.2968,45.7322-16.6357,64.0946-2.7684
			c20.4727,14.8861,30.0575,39.2338,39.989,61.5309c-1.6281-18.4984-9.6726-35.4625-14.4459-53.2033
			C758.1373,776.7896,763.1949,766.8804,768.4985,757.2847z M702.3171,960.9701c1.3495-10.8805,3.0823-21.8699,10.8513-29.9462
			c14.2894-11.5469,30.7689-20.5427,42.959-34.5513c-21.1407,12.2012-43.2061,26.2651-68.5187,26.2746
			c-23.0065,0.4258-46.3887-16.9814-50.2264-39.9136c-3.8376,22.9321-27.2199,40.3394-50.2264,39.9136
			c-25.3126-0.0095-47.3781-14.0734-68.5187-26.2746c12.1902,14.0086,28.6697,23.0044,42.959,34.5513
			c10.7523,11.1774,9.9425,27.9348,12.5565,42.2606c-4.3111,1.0878-8.6267,2.7159-13.1278,2.6041
			c-5.3976-0.6595-9.9464-3.9127-14.6258-6.3804c2.4967,7.4318,4.6533,15.3674,2.9462,23.24
			c-1.4595,7.5963-4.9611,14.2952-8.8824,20.8115c7.0026,2.967,13.7729,6.3283,19.4187,11.6159
			c6.0085,5.3657,8.9282,13.0533,11.2766,20.5333c2.3351-4.7468,4.1031-10.0525,8.0822-13.7587
			c3.5758-2.7361,8.0242-3.9556,12.1512-5.6096c6.3058,13.1262,16.8106,26.2074,14.6818,41.5701
			c-4.7733,17.7408-12.8178,34.705-14.4459,53.2034c9.9315-22.2972,19.5163-46.6449,39.989-61.5309
			c18.3624-13.8674,47.5107-13.5284,64.0946,2.7683c-10.3745-20.8081-1.6895-48.6346,17.1734-61.813
			c20.4839-14.8706,46.6018-16.4625,70.8766-19.0177c-18.0961-4.168-36.7159-1.7593-55.0634-2.7019
			C717.6656,976.8515,709.8043,968.9793,702.3171,960.9701z M875.5823,1086.8546c-9.9309-4.6458-19.847-9.6897-25.1273-19.5742
			c-6.5661-17.1582-10.0292-35.611-19.5851-51.5334c5.0712,23.8764,11.6281,49.2078,3.8151,73.2845
			c-6.7044,22.0121-30.4852,38.8707-53.4808,35.4342c20.6238,10.7362,29.9536,38.3531,22.4393,60.1021
			c-7.8311,24.0708-28.0253,40.7103-46.1621,57.0459c17.09-7.2646,30.7379-20.1577,46.1353-30.1796
			c13.9531-6.772,29.6401-0.8235,44.0724,1.1174c-0.2977,4.4362-0.0829,9.0437-1.5801,13.2899
			c-2.2952,4.9297-6.7948,8.2506-10.5878,11.9384c7.8397-0.078,16.0532,0.3231,23.0131,4.3795
			c6.7734,3.7355,12.0624,9.1356,17.0481,14.8788c4.9857-5.7432,10.2747-11.1433,17.0481-14.8788
			c6.9598-4.0564,15.1734-4.4575,23.0131-4.3795c-3.793-3.6877-8.2926-7.0087-10.5878-11.9384
			c-1.4972-4.2462-1.2824-8.8538-1.5801-13.2899c14.4324-1.9409,30.1194-7.8894,44.0724-1.1174
			c15.3974,10.0219,29.0453,22.9149,46.1353,30.1796c-18.1368-16.3356-38.331-32.9751-46.1621-57.0459
			c-7.5143-21.7489,1.8154-49.3658,22.4393-60.1021c-22.9957,3.4365-46.7764-13.4221-53.4808-35.4342
			c-7.813-24.0767-1.256-49.4081,3.8151-73.2845c-9.556,15.9224-13.019,34.3752-19.5851,51.5334
			C895.4293,1077.1649,885.5132,1082.2089,875.5823,1086.8546z M1048.8474,960.9701c-7.4872,8.0092-15.3484,15.8814-26.3809,17.8487
			c-18.3475,0.9426-36.9672-1.4661-55.0634,2.7019c24.2748,2.5552,50.3927,4.1471,70.8766,19.0177
			c18.8629,13.1785,27.548,41.0049,17.1735,61.813c16.5839-16.2968,45.7322-16.6357,64.0946-2.7683
			c20.4728,14.886,30.0575,39.2336,39.989,61.5309c-1.6281-18.4984-9.6726-35.4625-14.4459-53.2034
			c-2.1288-15.3627,8.3761-28.4438,14.6819-41.5701c4.1271,1.6541,8.5754,2.8735,12.1512,5.6096
			c3.979,3.7062,5.7469,9.0118,8.0822,13.7587c2.3485-7.48,5.2681-15.1676,11.2766-20.5333
			c5.6458-5.2876,12.416-8.6489,19.4187-11.6159c-3.9214-6.5164-7.4229-13.2152-8.8823-20.8115
			c-1.7072-7.8726,0.4495-15.8082,2.9462-23.24c-4.6793,2.4678-9.2283,5.7209-14.6259,6.3804
			c-4.5011,0.1118-8.8167-1.5163-13.1277-2.6041c2.6139-14.3258,1.8042-31.0832,12.5564-42.2606
			c14.2894-11.5469,30.7688-20.5427,42.9591-34.5513c-21.1407,12.2012-43.2062,26.2651-68.5188,26.2746
			c-23.0065,0.4258-46.3888-16.9814-50.2263-39.9136c-3.8376,22.9321-27.22,40.3394-50.2264,39.9136
			c-25.3126-0.0095-47.3781-14.0734-68.5187-26.2746c12.1902,14.0086,28.6697,23.0044,42.959,34.5513
			C1045.7651,939.1002,1047.4979,950.0896,1048.8474,960.9701z M982.666,757.2847c5.3036,9.5957,10.3612,19.5049,8.8231,30.6052
			c-4.7733,17.7408-12.8178,34.7049-14.4459,53.2033c9.9315-22.2971,19.5163-46.6448,39.989-61.5309
			c18.3624-13.8673,47.5107-13.5284,64.0946,2.7684c-10.3745-20.8082-1.6895-48.6346,17.1733-61.813
			c20.484-14.8707,46.6018-16.4625,70.8767-19.0177c-18.0962-4.168-36.7159-1.7593-55.0634-2.7019
			c-15.2687-2.7227-24.4634-16.7557-34.9985-26.8091c2.8483-3.414,5.3827-7.2678,9.0898-9.8231
			c4.7545-2.639,10.3468-2.6809,15.5829-3.4349c-6.3882-4.545-12.7972-9.6973-16.0436-17.0698
			c-3.2843-7.0034-4.389-14.4811-5.0468-22.0578c-7.4092,1.7158-14.8623,2.9758-22.5377,2.0165
			c-8.0149-0.8093-14.8956-5.3125-21.1921-9.9836c0.9009,5.2129,2.5892,10.5444,1.5486,15.8817
			c-1.2847,4.3153-4.1667,7.9166-6.5333,11.6805c-12.817-6.9129-29.0044-11.3212-36.3122-25.0012
			c-6.5661-17.1582-10.0292-35.611-19.5851-51.5334c5.0712,23.8764,11.6281,49.2078,3.8151,73.2845
			c-6.7045,22.0121-30.4852,38.8708-53.4808,35.4342c20.6238,10.7362,29.9536,38.3532,22.4392,60.1021
			c-7.8311,24.0707-28.0252,40.7102-46.162,57.0459c17.09-7.2647,30.7379-20.1578,46.1353-30.1796
			C960.914,753.4579,971.9011,755.2059,982.666,757.2847z M850.5178,621.6077c2.1609-30.3053-10.6676-60.7025-33.3335-80.8182
			C830.2386,566.8995,841.2534,593.9323,850.5178,621.6077z M598.626,841.0386c-28.1543-11.42-61.028-8.6126-87.1633,6.7278
			C540.3289,843.4195,569.4423,841.2974,598.626,841.0386z M729.4784,1148.4098c-19.5613,23.2474-27.0497,55.3796-20.5364,84.9763
			C713.7279,1204.5895,720.7063,1176.2451,729.4784,1148.4098z M1062.2413,1118.9447
			c16.0648,25.7877,44.3103,42.8391,74.4712,45.7904C1110.8042,1151.2848,1086.0037,1135.8892,1062.2413,1118.9447z
			 M1137.0479,793.3631c29.4899-7.3097,54.4349-28.9036,66.562-56.6762C1182.8118,757.1708,1160.5059,776,1137.0479,793.3631z
			 M933.9803,540.7895c-22.6659,20.1157-35.4944,50.5129-33.3335,80.8182C909.9112,593.9323,920.9259,566.8995,933.9803,540.7895z
			 M547.5546,736.6869c12.1271,27.7726,37.0722,49.3665,66.5621,56.6762C590.6588,776,568.3528,757.1708,547.5546,736.6869z
			 M614.4521,1164.7351c30.1608-2.9513,58.4063-20.0027,74.4711-45.7904C665.1609,1135.8892,640.3604,1151.2848,614.4521,1164.7351z
			 M1042.2225,1233.3861c6.5133-29.5967-0.9751-61.7289-20.5364-84.9763
			C1030.4583,1176.2451,1037.4366,1204.5895,1042.2225,1233.3861z M1239.7018,847.7665
			c-26.1353-15.3405-59.0089-18.1479-87.1632-6.7278C1181.7223,841.2974,1210.8357,843.4195,1239.7018,847.7665z M875.5823,243.2297
			c-10.09,5.8386-20.6625,10.9767-30.8773,16.2347c-12.7349-8.4542-28.903-6.7484-42.4879-1.5388
			c-17.9008,7.3091-29.3559,25.2133-32.8518,43.6994c-2.3029,10.2117-1.255,20.5525-0.4207,30.8763
			c-6.7432,7.8617-13.6691,15.6117-17.8083,25.2267c-8.0376,17.0105-9.294,38.2284,0.8918,54.6634
			c7.9282,12.1997,20.0059,23.0831,35.2779,23.7289c12.8979,25.5747,28.0333,51.8544,27.397,81.4661
			c9.3393-38.3679-7.9622-76.891-2.6048-115.4074c2.4149-19.0253,14.5266-34.6231,29.2585-46.1496
			c-5.1433-17.9843-5.7737-37.7223,3.4554-54.5336c7.9088-14.8235,19.2403-27.1619,30.7701-39.3416
			c11.5298,12.1797,22.8613,24.5181,30.7701,39.3416c9.2291,16.8112,8.5987,36.5492,3.4554,54.5336
			c14.7319,11.5265,26.8437,27.1243,29.2585,46.1496c5.3574,38.5164-11.9441,77.0395-2.6048,115.4074
			c-0.6363-29.6117,14.4991-55.8914,27.397-81.4661c15.272-0.6458,27.3497-11.5292,35.2779-23.7289
			c10.1859-16.435,8.9294-37.653,0.8918-54.6634c-4.1392-9.615-11.0651-17.365-17.8083-25.2267
			c0.8344-10.3238,1.8823-20.6647-0.4207-30.8763c-3.4959-18.4861-14.951-36.3903-32.8518-43.6994
			c-13.5849-5.2097-29.753-6.9154-42.4879,1.5388C896.2448,254.2064,885.6722,249.0682,875.5823,243.2297z M1504.6521,700.2756
			c-8.6708-7.7919-16.8246-16.2592-24.9818-24.3492c4.1051-14.7241-2.5133-29.5739-11.666-40.8839
			c-12.483-14.766-33.0508-20.1278-51.7124-17.7401c-10.4235,0.9655-19.9344,5.1575-29.4951,9.1412
			c-9.5608-3.9837-19.0717-8.1758-29.4951-9.1412c-18.6616-2.3877-39.2294,2.9741-51.7124,17.7401
			c-9.1527,11.3101-15.7711,26.1598-11.666,40.8839c-20.3374,20.1697-40.6537,42.6851-69.0127,51.2306
			c39.376-2.9742,70.6671-31.3331,108.954-38.1402c18.8403-3.5825,37.4175,3.1165,52.9323,13.5655
			c15.5148-10.449,34.0919-17.1479,52.9323-13.5655c16.542,2.941,31.7781,9.9052,46.9246,17.1069
			c-8.0206,14.7292-16.2535,29.3188-27.9076,41.4213c-13.1365,13.9724-32.1033,19.4722-50.7968,20.1381
			c-6.4099,17.5728-17.5016,33.9117-34.8495,42.0875c-34.9757,16.9974-76.9598,12.447-110.5638,33.1855
			c27.9658-9.7556,57.6364-3.4819,85.9451,0.8818c5.3335,14.325,19.4164,22.4484,33.4689,26.2186
			c18.7783,4.6086,38.5695-3.143,52.2637-16.0437c7.8652-6.9078,13.0957-15.8897,18.4889-24.7322
			c10.0764-2.3967,20.235-4.5956,29.2352-9.9414c16.501-9.0374,29.989-25.4645,31.4088-44.7478
			c0.7567-14.5298-2.6172-30.4338-14.5929-39.9329C1500.5977,723.3189,1502.2173,711.676,1504.6521,700.2756z M1264.3688,1439.7915
			c4.7312-10.6542,10.2644-21.0255,15.4377-31.2833c15.272-0.6459,27.3496-11.5292,35.2778-23.7289
			c10.1858-16.4351,8.9294-37.653,0.8918-54.6635c-4.1392-9.615-11.0652-17.365-17.8083-25.2267
			c0.8344-10.3239,1.8822-20.6647-0.4207-30.8763c-3.496-18.4862-14.951-36.3904-32.8518-43.6995
			c-13.5848-5.2097-29.7531-6.9154-42.4879,1.5388c-25.4672-13.1093-53.1587-25.4735-70.0493-49.804
			c14.9965,36.5298,51.637,57.526,69.9421,91.8354c9.2291,16.8113,8.5986,36.5492,3.4554,54.5336
			c14.7319,11.5265,26.8436,27.1243,29.2584,46.1497c2.3147,16.6411,0.3997,33.2836-1.769,49.9142
			c-16.4868-3.0765-32.9065-6.3979-48.0179-13.7418c-17.3479-8.1758-28.4396-24.5148-34.8495-42.0875
			c-18.6935-0.6659-37.6603-6.1656-50.7968-20.1381c-26.9736-28.0115-35.6198-69.3468-65.7274-94.8976
			c17.9202,23.5824,21.1222,53.7394,25.72,82.011c-11.9758,9.4991-15.3497,25.4031-14.593,39.933
			c1.4198,19.2832,14.9078,35.7104,31.4088,44.7478c9.0002,5.3457,19.1588,7.5446,29.2352,9.9413
			c5.3932,8.8427,10.6237,17.8245,18.4889,24.7323c13.6942,12.9008,33.4855,20.6523,52.2637,16.0437
			c14.0525-3.7703,28.1355-11.8937,33.469-26.2186C1241.2004,1443.0563,1252.774,1440.9988,1264.3688,1439.7915z
			 M486.7958,1439.7915c11.5948,1.2073,23.1683,3.2648,34.5228,5.015c5.3335,14.325,19.4164,22.4484,33.469,26.2186
			c18.7782,4.6086,38.5694-3.1429,52.2635-16.0437c7.8653-6.9078,13.0958-15.8896,18.489-24.7323
			c10.0764-2.3967,20.2349-4.5956,29.2352-9.9413c16.501-9.0374,29.9891-25.4646,31.4088-44.7478
			c0.7568-14.5299-2.6172-30.4338-14.5929-39.933c4.5978-28.2716,7.7998-58.4286,25.7198-82.011
			c-30.1077,25.5508-38.7538,66.8861-65.7274,94.8976c-13.1365,13.9724-32.1033,19.4722-50.7968,20.1381
			c-6.4099,17.5728-17.5016,33.9117-34.8495,42.0875c-15.1115,7.3439-31.5311,10.6653-48.0179,13.7418
			c-2.1687-16.6306-4.0838-33.2731-1.7691-49.9142c2.4149-19.0254,14.5266-34.6232,29.2585-46.1497
			c-5.1432-17.9844-5.7737-37.7223,3.4554-54.5336c18.3052-34.3094,54.9457-55.3057,69.9421-91.8354
			c-16.8906,24.3304-44.5822,36.6947-70.0493,49.804c-12.7349-8.4542-28.903-6.7485-42.4879-1.5388
			c-17.9008,7.3091-29.3559,25.2133-32.8518,43.6995c-2.3029,10.2117-1.255,20.5525-0.4207,30.8763
			c-6.7432,7.8617-13.6691,15.6117-17.8083,25.2267c-8.0376,17.0105-9.294,38.2284,0.8918,54.6635
			c7.9282,12.1997,20.0059,23.083,35.2779,23.7289C476.5314,1418.766,482.0646,1429.1373,486.7958,1439.7915z M246.5125,700.2756
			c2.4348,11.4003,4.0544,23.0433,5.8986,34.3828c-11.9757,9.4991-15.3497,25.4031-14.5929,39.9329
			c1.4198,19.2833,14.9078,35.7104,31.4088,44.7478c9.0002,5.3458,19.1588,7.5447,29.2352,9.9414
			c5.3932,8.8425,10.6236,17.8244,18.489,24.7322c13.6942,12.9007,33.4854,20.6523,52.2636,16.0437
			c14.0526-3.7702,28.1355-11.8937,33.469-26.2186c28.3087-4.3636,57.9792-10.6374,85.945-0.8818
			c-33.604-20.7385-75.5881-16.1881-110.5639-33.1855c-17.3479-8.1758-28.4395-24.5148-34.8495-42.0875
			c-18.6935-0.666-37.6602-6.1657-50.7967-20.1381c-11.6541-12.1024-19.8869-26.6921-27.9076-41.4213
			c15.1465-7.2017,30.3826-14.1659,46.9246-17.1069c18.8404-3.5825,37.4175,3.1165,52.9323,13.5655
			c15.5148-10.449,34.0919-17.1479,52.9323-13.5655c38.2868,6.8071,69.578,35.166,108.954,38.1402
			c-28.359-8.5455-48.6754-31.0609-69.0127-51.2306c4.1051-14.7241-2.5133-29.5739-11.666-40.8839
			c-12.483-14.766-33.0508-20.1278-51.7124-17.7401c-10.4235,0.9655-19.9344,5.1575-29.4951,9.1412
			c-9.5607-3.9837-19.0716-8.1758-29.4951-9.1412c-18.6617-2.3877-39.2294,2.9741-51.7124,17.7401
			c-9.1527,11.3101-15.7711,26.1598-11.666,40.8839C263.3371,684.0164,255.1832,692.4837,246.5125,700.2756z M836.0624,354.3093
			c-14.6347,3.3736-29.262,7.2727-42.1422,15.162c-8.9736,5.3868-16.9297,13.945-18.126,24.7438
			c-1.9081,14.7517,5.6122,28.2065,10.7997,41.4538c-8.313-2.679-18.4595-6.0859-21.4042-15.3232
			c-3.8425-14.9465,2.6101-30.4679,11.2083-42.5613c7.4902-11.1806,14.6377-24.0232,16.3889-37.5361
			c6.526-11.9616,8.2922-26.5526,8.8044-40.0005c0.1522-14.8377,4.0552-31.1876,15.9492-41.0209
			c7.8118-5.7423,18.0231-2.5345,26.3231,0.1843c-11.9833,7.6682-25.9759,14.133-33.103,27.189
			c-5.3795,9.4396-3.9733,21.0398,0.1202,30.6724C816.6638,331.2258,826.2057,342.978,836.0624,354.3093z M339.9432,772.1868
			c-1.3139,14.9609-2.1257,30.0772,1.3973,44.7649c2.3501,10.199,8.031,20.4103,17.9315,24.8851
			c13.4401,6.3734,28.5603,3.3788,42.7622,2.5389c-5.1167,7.0782-11.4923,15.6753-21.1875,15.6214
			c-15.4023-0.9642-28.1701-11.8975-37.0147-23.812c-8.3188-10.5785-18.3241-21.3448-30.6346-27.186
			c-9.3595-9.903-22.6906-16.0916-35.3221-20.7343c-14.0645-4.7299-28.408-13.4942-34.0847-27.8447
			c-3.0472-9.2039,3.1589-17.9242,8.3096-24.9778c3.5898,13.7664,5.4143,29.0719,15.6288,39.8847
			c7.3152,8.0332,18.7822,10.2805,29.2083,9.364C311.9949,783.5028,326.1206,778.0595,339.9432,772.1868z M584.059,1373.1554
			c13.8226,5.8728,27.9483,11.316,43.0057,12.5043c10.4261,0.9165,21.8931-1.3308,29.2084-9.364
			c10.2145-10.8127,12.039-26.1183,15.6288-39.8846c5.1506,7.0536,11.3568,15.7738,8.3096,24.9778
			c-5.6766,14.3505-20.0202,23.1147-34.0847,27.8447c-12.6314,4.6427-25.9626,10.8313-35.322,20.7343
			c-12.3105,5.8412-22.3158,16.6074-30.6346,27.186c-8.8446,11.9144-21.6123,22.8477-37.0146,23.8119
			c-9.6951,0.054-16.0708-8.5432-21.1875-15.6213c14.2019,0.8398,29.3221,3.8344,42.7622-2.5389
			c9.9005-4.4747,15.5813-14.686,17.9315-24.8851C586.1847,1403.2327,585.3729,1388.1163,584.059,1373.1554z M1231.05,1326.697
			c9.8567-11.3313,19.3987-23.0835,25.1818-37.0369c4.0935-9.6326,5.4996-21.2328,0.1202-30.6724
			c-7.1272-13.056-21.1198-19.5209-33.103-27.189c8.2999-2.7189,18.5112-5.9266,26.323-0.1843
			c11.894,9.8334,15.797,26.1832,15.9492,41.021c0.5122,13.4479,2.2783,28.0389,8.8043,40.0005
			c1.7512,13.5129,8.8987,26.3555,16.3889,37.5361c8.5981,12.0934,15.0508,27.6149,11.2083,42.5613
			c-2.9447,9.2373-13.0912,12.6442-21.4041,15.3232c5.1874-13.2473,12.7078-26.7021,10.7996-41.4539
			c-1.1963-10.7987-9.1523-19.3569-18.126-24.7438C1260.312,1333.9697,1245.6847,1330.0706,1231.05,1326.697z M1386.7968,697.0155
			c-7.7308-12.8759-15.9592-25.5825-27.4426-35.3942c-7.8961-6.8699-18.494-11.7919-29.134-9.5927
			c-14.6193,2.7437-25.0917,14.0538-36.0875,23.081c-0.021-8.7339,0.0837-19.4366,7.959-25.0917
			c13.0275-8.2732,29.7832-6.9327,43.9418-2.4924c12.948,3.6685,27.3706,6.4977,40.7634,3.9874
			c13.3927,2.5103,27.8154-0.3189,40.7634-3.9874c14.1586-4.4403,30.9143-5.7808,43.9418,2.4924
			c7.8752,5.655,7.98,16.3577,7.959,25.0917c-10.9958-9.0272-21.4683-20.3373-36.0876-23.081
			c-10.6399-2.1992-21.2378,2.7228-29.134,9.5927C1402.756,671.433,1394.5276,684.1396,1386.7968,697.0155z M940.2839,317.2725
			c4.0935-9.6326,5.4997-21.2328,0.1202-30.6724c-7.1271-13.056-21.1198-19.5208-33.103-27.189
			c8.3-2.7188,18.5112-5.9266,26.3231-0.1843c11.894,9.8333,15.7969,26.1832,15.9492,41.0209
			c0.5121,13.4479,2.2784,28.0389,8.8044,40.0005c1.7512,13.513,8.8987,26.3555,16.3889,37.5361
			c8.5982,12.0935,15.0508,27.6149,11.2083,42.5613c-2.9447,9.2373-13.0912,12.6442-21.4042,15.3232
			c5.1874-13.2473,12.7078-26.7021,10.7997-41.4538c-1.1964-10.7988-9.1524-19.357-18.126-24.7438
			c-12.8802-7.8893-27.5075-11.7884-42.1422-15.162C924.9589,342.978,934.5008,331.2258,940.2839,317.2725z M336.9252,661.6213
			c-7.8961-6.8699-18.4941-11.7919-29.134-9.5927c-14.6194,2.7437-25.0917,14.0538-36.0876,23.081
			c-0.0209-8.7339,0.0838-19.4366,7.959-25.0917c13.0275-8.2732,29.7832-6.9327,43.9418-2.4924
			c12.948,3.6685,27.3707,6.4977,40.7634,3.9874c13.3928,2.5103,27.8155-0.3189,40.7635-3.9874
			c14.1586-4.4403,30.9143-5.7808,43.9418,2.4924c7.8752,5.655,7.9799,16.3577,7.959,25.0917
			c-10.9959-9.0272-21.4683-20.3373-36.0876-23.081c-10.6399-2.1992-21.2379,2.7228-29.134,9.5927
			c-11.4833,9.8118-19.7118,22.5184-27.4426,35.3942C356.637,684.1396,348.4086,671.433,336.9252,661.6213z M477.9723,1341.859
			c-8.9736,5.3868-16.9297,13.9451-18.126,24.7438c-1.9082,14.7517,5.6122,28.2065,10.7997,41.4539
			c-8.3129-2.6791-18.4595-6.0859-21.4041-15.3232c-3.8426-14.9464,2.6101-30.4679,11.2083-42.5613
			c7.4901-11.1807,14.6377-24.0232,16.3888-37.5361c6.526-11.9615,8.2922-26.5526,8.8044-40.0005
			c0.1523-14.8378,4.0552-31.1876,15.9492-41.021c7.8118-5.7423,18.0231-2.5345,26.3231,0.1843
			c-11.9833,7.6681-25.976,14.1329-33.1031,27.189c-5.3795,9.4396-3.9733,21.0398,0.1202,30.6724
			c5.7831,13.9534,15.325,25.7056,25.1817,37.0369C505.4799,1330.0706,490.8525,1333.9697,477.9723,1341.859z M1168.5028,1417.9203
			c2.3502,10.1991,8.031,20.4104,17.9315,24.8851c13.4401,6.3733,28.5603,3.3788,42.7622,2.5389
			c-5.1167,7.0781-11.4923,15.6753-21.1875,15.6213c-15.4023-0.9642-28.17-11.8975-37.0146-23.8119
			c-8.3188-10.5786-18.3241-21.3448-30.6345-27.186c-9.3595-9.903-22.6907-16.0916-35.3221-20.7343
			c-14.0645-4.73-28.408-13.4943-34.0846-27.8447c-3.0472-9.204,3.1589-17.9242,8.3096-24.9778
			c3.5898,13.7664,5.4142,29.0719,15.6288,39.8846c7.3153,8.0332,18.7822,10.2805,29.2084,9.364
			c15.0575-1.1882,29.1831-6.6315,43.0057-12.5043C1165.7917,1388.1163,1164.9799,1403.2327,1168.5028,1417.9203z
			 M1454.2271,784.691c10.4261,0.9166,21.8932-1.3307,29.2084-9.364c10.2146-10.8128,12.0391-26.1183,15.6288-39.8847
			c5.1506,7.0536,11.3568,15.7739,8.3096,24.9778c-5.6766,14.3505-20.0201,23.1149-34.0846,27.8447
			c-12.6315,4.6428-25.9626,10.8314-35.322,20.7343c-12.3105,5.8412-22.3158,16.6075-30.6346,27.186
			c-8.8446,11.9145-21.6123,22.8477-37.0146,23.812c-9.6951,0.0539-16.0708-8.5432-21.1875-15.6214
			c14.2019,0.8399,29.3221,3.8345,42.7622-2.5389c9.9005-4.4748,15.5813-14.6861,17.9315-24.8851
			c3.5229-14.6877,2.7112-29.804,1.3972-44.7649C1425.0439,778.0595,1439.1697,783.5028,1454.2271,784.691z M779.2145,335.8383
			c-0.8738,4.9935-2.4177,9.8757-4.7138,14.5061c-6.5878,13.4294-12.4644,27.178-17.9492,41.076
			c3.6895-19.7242,15.1258-37.273,18.8281-56.8281c8.499-17.9966,9.5618-38.916,18.1705-57.0418
			c-3.7318,14.4675-7.0587,29.0446-9.6227,43.7814C783.0634,326.4277,781.4427,331.2849,779.2145,335.8383z M304.8093,820.5445
			c4.4791,2.3741,8.6452,5.3511,12.3395,8.9657c10.7364,10.4152,21.9961,20.2528,33.519,29.7638
			c-17.6187-9.6039-30.7746-25.9034-48.2285-35.4674c-14.4895-13.6442-34.0566-21.1194-48.635-34.908
			c12.6062,8.0198,25.4418,15.6884,38.665,22.6809C297.0486,813.976,301.1672,817.0182,304.8093,820.5445z M619.1929,1421.5131
			c3.642-3.5262,7.7607-6.5685,12.34-8.965c13.2233-6.9924,26.0588-14.6611,38.665-22.6809
			c-14.5784,13.7886-34.1455,21.2638-48.6349,34.9081c-17.4539,9.564-30.6099,25.8634-48.2286,35.4674
			c11.5229-9.5111,22.7826-19.3486,33.519-29.7639C610.5477,1426.8643,614.7138,1423.8872,619.1929,1421.5131z M1287.8979,1308.2261
			c-2.2281-4.5535-3.8489-9.4108-4.713-14.5065c-2.564-14.7368-5.8909-29.3138-9.6227-43.7814
			c8.6088,18.1257,9.6716,39.0452,18.1705,57.0417c3.7023,19.5552,15.1387,37.104,18.8281,56.8281
			c-5.4847-13.8979-11.3615-27.6465-17.9492-41.0759C1290.3156,1318.1017,1288.7717,1313.2196,1287.8979,1308.2261z
			 M1386.7968,637.2421c-5.0192,0.7121-10.1394,0.7524-15.2528-0.0004c-14.8079-2.1154-29.6996-3.4558-44.6122-4.3774
			c19.8989-2.5862,40.1229,2.8674,59.865,0.3457c19.7421,2.5217,39.9661-2.9319,59.865-0.3457
			c-14.9127,0.9216-29.8043,2.2621-44.6122,4.3774C1396.9362,637.9945,1391.8159,637.9542,1386.7968,637.2421z M967.2371,321.3319
			c-2.564-14.7368-5.8909-29.3139-9.6227-43.7814c8.6088,18.1258,9.6715,39.0452,18.1705,57.0418
			c3.7023,19.5551,15.1386,37.1039,18.8281,56.8281c-5.4848-13.8979-11.3614-27.6465-17.9492-41.076
			c-2.2961-4.6305-3.84-9.5126-4.7138-14.5061C969.7218,331.2849,968.1012,326.4277,967.2371,321.3319z M349.115,637.2416
			c-14.8079-2.1154-29.6995-3.4558-44.6122-4.3774c19.8989-2.5862,40.1228,2.8674,59.8649,0.3457
			c19.7421,2.5217,39.9661-2.9319,59.865-0.3457c-14.9126,0.9216-29.8043,2.2621-44.6122,4.3774
			c-5.1133,0.7529-10.2336,0.7125-15.2528,0.0004C359.3487,637.9542,354.2284,637.9945,349.115,637.2416z M458.5528,1322.7322
			c-6.5878,13.4294-12.4644,27.178-17.9491,41.0759c3.6894-19.7241,15.1257-37.2729,18.8281-56.8281
			c8.499-17.9966,9.5617-38.916,18.1705-57.0417c-3.7318,14.4675-7.0587,29.0446-9.6227,43.7814
			c-0.8641,5.0957-2.4847,9.953-4.713,14.5065C462.3928,1313.2196,460.8489,1318.1017,458.5528,1322.7322z M1144.3112,1430.4788
			c10.7365,10.4153,21.9961,20.2528,33.5189,29.7639c-17.6187-9.604-30.7745-25.9034-48.2285-35.4674
			c-14.4894-13.6443-34.0565-21.1195-48.6349-34.9081c12.6062,8.0198,25.4418,15.6885,38.6649,22.6809
			c4.5793,2.3965,8.698,5.4387,12.3401,8.965C1136.4508,1423.8872,1140.6168,1426.8643,1144.3112,1430.4788z M1458.6953,811.5795
			c13.2233-6.9925,26.0587-14.6611,38.665-22.6809c-14.5784,13.7886-34.1455,21.2638-48.635,34.908
			c-17.454,9.564-30.6099,25.8635-48.2285,35.4674c11.5228-9.511,22.7826-19.3486,33.5189-29.7638
			c3.6943-3.6146,7.8605-6.5916,12.3396-8.9657C1449.9973,817.0182,1454.116,813.976,1458.6953,811.5795z M875.5823,650.7032
			c-2.9728-2.3691-5.5903-5.1638-7.6867-8.4296c-4.4072-8.193-0.5914-17.7002,2.6141-25.5997
			c1.6917,3.2817,3.3411,6.701,5.0726,10.1033c1.7315-3.4023,3.381-6.8216,5.0726-10.1033
			c3.2054,7.8995,7.0212,17.4067,2.6141,25.5997C881.1725,645.5394,878.5551,648.3341,875.5823,650.7032z M1117.1217,826.1919
			c1.3346-3.5594,3.1836-6.9124,5.6417-9.9154c6.4301-6.7232,16.651-6.032,25.1545-5.4246
			c-2.5984,2.623-5.3407,5.2484-8.0414,7.9465c3.7709,0.5955,7.5326,1.1075,11.1764,1.7023
			c-6.5223,5.4897-14.3851,12.0566-23.5389,10.3969C1123.7603,829.9128,1120.2935,828.287,1117.1217,826.1919z M1024.8618,1110.1384
			c3.7976,0.1694,7.5579,0.8918,11.1735,2.3016c8.3812,4.0377,10.8823,13.972,12.9324,22.2471
			c-3.2976-1.6606-6.6418-3.4574-10.0425-5.1921c0.599,3.7703,1.2744,7.5061,1.8347,11.1554
			c-7.2365-4.5068-15.9117-9.9554-17.1619-19.1741C1023.3745,1117.6021,1023.8494,1113.8025,1024.8618,1110.1384z
			 M726.3027,1110.1384c1.0125,3.6641,1.4874,7.4636,1.2639,11.3379c-1.2502,9.2186-9.9255,14.6672-17.1619,19.1741
			c0.5603-3.6493,1.2358-7.3851,1.8347-11.1554c-3.4006,1.7347-6.7449,3.5315-10.0425,5.1921
			c2.05-8.275,4.5512-18.2094,12.9324-22.2471C718.7449,1111.0303,722.5051,1110.3079,726.3027,1110.1384z M634.0429,826.1919
			c-3.1719,2.0952-6.6386,3.7209-10.3924,4.7056c-9.1538,1.6597-17.0165-4.9072-23.539-10.3969
			c3.6439-0.5948,7.4056-1.1068,11.1764-1.7023c-2.7007-2.6981-5.4429-5.3235-8.0413-7.9465
			c8.5035-0.6074,18.7245-1.2986,25.1546,5.4246C630.8593,819.2795,632.7083,822.6325,634.0429,826.1919z M875.5823,585.5449
			c-0.4135-0.4482-0.8264-0.8956-1.239-1.3419c-14.5426-16.2429-30.1753-32.1133-49.6076-42.4573
			c23.6074,18.5055,34.3643,47.3485,45.6021,74.1016c-9.0383,11.8733-8.6185,27.8103-4.5424,41.5473
			c2.2679,6.4139,5.4941,12.7447,9.7869,18.0849c4.2928-5.3402,7.519-11.671,9.7869-18.0849
			c4.0762-13.737,4.4959-29.674-4.5424-41.5473c11.2378-26.7531,21.9947-55.5961,45.6021-74.1016
			c-19.4323,10.344-35.065,26.2144-49.6075,42.4573C876.4087,584.6494,875.9957,585.0967,875.5823,585.5449z M1179.0909,806.0569
			c0.2985-0.5317,0.5963-1.0627,0.8933-1.5931c10.954-18.8502,21.2169-38.6219,25.0497-60.2997
			c-10.3047,28.1705-34.412,47.314-56.3829,66.2689c-14.0851-4.9269-29.1124,0.3972-40.9175,8.5187
			c-5.3992,4.139-10.4232,9.1636-14.1754,14.8964c6.4054,2.4325,13.4232,3.5445,20.2241,3.7194
			c14.3242-0.3683,29.6108-4.8939,38.1101-17.1589c28.9163,2.4207,59.6718,3.738,84.5665,20.4716
			c-15.8427-15.2848-35.767-25.2481-55.7089-34.0596C1180.198,806.5661,1179.6449,806.3116,1179.0909,806.0569z
			 M1063.1609,1162.8527c0.598,0.1196,1.1951,0.2388,1.7911,0.3573c21.3126,4.5929,43.2881,8.2437,65.0892,5.1901
			c-29.9761-1.0951-55.6321-18.1068-80.4487-33.1451c0.3333-14.9182-9.3739-27.5648-20.746-36.2823
			c-5.6049-3.856-11.936-7.0814-18.5478-8.8784c-0.3341,6.8435,0.777,13.8615,2.7122,20.3835
			c4.7767,13.5094,13.8047,26.6494,28.0958,30.9425c6.6334,28.2491,14.8844,57.9064,6.6628,86.7537
			c9.641-19.7904,12.9597-41.8186,15.1776-63.5072C1063.0188,1164.063,1063.09,1163.4583,1063.1609,1162.8527z M688.0036,1162.8527
			c0.071,0.6056,0.1422,1.2103,0.2137,1.814c2.2179,21.6886,5.5366,43.7168,15.1776,63.5072
			c-8.2216-28.8473,0.0294-58.5045,6.6629-86.7537c14.2911-4.2931,23.319-17.4331,28.0958-30.9425
			c1.9352-6.5221,3.0463-13.54,2.7123-20.3835c-6.6119,1.797-12.943,5.0225-18.5479,8.8784
			c-11.3721,8.7175-21.0792,21.3641-20.746,36.2823c-24.8165,15.0383-50.4726,32.05-80.4487,33.1451
			c21.8011,3.0536,43.7766-0.5972,65.0892-5.1901C686.8087,1163.0914,687.4057,1162.9723,688.0036,1162.8527z M572.0736,806.0569
			c-0.554,0.2547-1.1071,0.5092-1.6591,0.7637c-19.9418,8.8115-39.8663,18.7748-55.7089,34.0596
			c24.8949-16.7335,55.6503-18.0509,84.5666-20.4716c8.4992,12.265,23.7859,16.7906,38.1102,17.1589
			c6.8009-0.1749,13.8187-1.2869,20.2241-3.7194c-3.7523-5.7328-8.7762-10.7574-14.1754-14.8964
			c-11.8051-8.1216-26.8323-13.4456-40.9175-8.5187c-21.9709-18.9549-46.0782-38.0983-56.3829-66.2689
			c3.8328,21.6777,14.0958,41.4495,25.0497,60.2997C571.4772,804.9941,571.7751,805.5251,572.0736,806.0569z"/>
	</g>
</g>
</svg>
