<?xml version="1.0" encoding="utf-8"?>
<!-- Generator: Adobe Illustrator 18.0.0, SVG Export Plug-In . SVG Version: 6.00 Build 0)  -->
<!DOCTYPE svg PUBLIC "-//W3C//DTD SVG 1.1//EN" "http://www.w3.org/Graphics/SVG/1.1/DTD/svg11.dtd">
<svg version="1.1" id="Layer_1" xmlns="http://www.w3.org/2000/svg" xmlns:xlink="http://www.w3.org/1999/xlink" x="0px" y="0px"
	 viewBox="0 0 1884.2791 1658.8934" enable-background="new 0 0 1884.2791 1658.8934" xml:space="preserve">
<g>
	<path d="M900.7715,1132.6495c130.5945,31.4137,245.4084,92.1233,350.1352,173.1582
		c72.882,56.3942,149.0464,107.1782,242.5094,124.2882c82.2457,15.0565,150.1448-21.2965,173.2582-99.4087
		c17.3864-58.7571-6.1888-112.0042-39.2037-158.7806c-61.2813-86.8251-150.8937-123.9703-253.3623-138.7377
		c-81.793-11.7878-161.7511,3.9152-242.1096,11.0605c-74.8943,6.6595-149.2879,13.2714-222.7752-6.1183
		c-89.5964-23.6398-159.3899-73.8255-201.1288-159.4406c11.794-6.2853,14.6552,4.7326,19.0651,10.439
		c77.6839,100.522,209.6301,122.8489,331.4035,95.6859c118.5676-26.4476,231.8899-73.548,354.1479-85.6827
		c153.8975-15.2751,272.2031,40.4717,359.7106,167.5838c71.8824,104.4155,89.7914,220.03,72.0417,341.569
		c-21.0355,144.0405-168.7935,198.5475-270.3519,180.8958c-129.0568-22.4312-229.0107-94.8682-321.4976-181.1646
		c-63.0918-58.869-123.9255-120.319-189.2635-176.5546c-34.4161-29.6211-74.9406-52.7347-116.1155-73.3615
		C931.4594,1150.1779,916.2428,1141.1595,900.7715,1132.6495z"/>
	<path d="M1396.9291,858.7057c-120.9452-7.3998-227.4458,44.8196-338.0098,78.5159
		c-158.03,48.1622-325.1144-37.5869-369.0059-193.4945c-44.8398-159.2759,25.8854-347.7845,218.0485-396.1603
		c98.8195-24.8772,196.0974-5.8592,283.3385,48.0335c39.7296,24.5427,50.4883,71.2066,61.6208,112.7027
		c11.8105,44.0234,14.599,90.4776,21.0912,135.9039c0.7672,5.3674-0.765,10.6111-6.4286,14.6019
		c-37.2458-54.7535-78.649-104.6554-140.8269-133.7116c-82.3098-38.4639-183.3669-24.5899-251.9441,35.1184
		c-50.854,44.2774-49.5038,101.5794-40.4959,159.509c15.2769,98.2448,96.078,160.6705,195.8928,162.3061
		c73.7131,1.2078,144.1554-15.2958,215.3662-28.1541C1296.8284,844.6223,1346.8672,847.5502,1396.9291,858.7057z"/>
	<path d="M33.4475,1270.7173c40.003-4.7867,75.0194-15.8984,110.7703-23.5234c75.8542-16.1781,144.8433-50.1315,214.4677-81.9136
		c20.7747-9.4832,47.376-22.1212,46.3066-51.8068c-1.1346-31.4976-25.2886-47.9896-50.3497-61.2555
		c-13.4738-7.1323-28.3825-11.5541-41.6942-20.5461c132.3414-4.998,261.4857,16.3771,384.3453,60.483
		c197.596,70.9359,370.2348,184.2279,517.3792,335.3871c-82.6786-63.9188-178.5128-96.547-278.421-119.9553
		c-123.8707-29.0228-249.5422-44.4188-375.9933-58.0197c-136.3573-14.6664-270.1236,5.3342-404.822,14.8413
		c-30.6793,2.1655-60.9548,9.7869-91.4924,14.3917C55.0846,1280.1359,45.4047,1283.0514,33.4475,1270.7173z"/>
	<path d="M1309.6106,1508.5342c-121.3042-46.7185-236.7549-108.7161-364.8772-137.692
		c-126.0865-28.5155-251.9419-54.42-382.4314-56.3696c-79.4648-1.1873-157.8152,7.0629-236.5872,11.783
		c-32.3383,1.9377-64.2527,10.9562-96.3607,16.7537c28.6483,9.2296,56.6503,8.8907,83.4822,14.3278
		c33.6234,6.8134,70.907,18.0541,81.4269,53.5833c10.4195,35.1907-18.7288,59.3818-44.9425,78.071
		c-34.7009,24.7402-71.6773,46.2849-107.6335,69.269c-35.1029,22.4391-70.1525,44.9608-106.9416,68.546
		c9.748,5.5184,13.7396,1.0031,18.4232-1.1038c113.8357-51.2108,227.3901-103.0612,350.9291-127.8124
		c83.9532-16.8199,169.0442-24.545,254.0944-31.6781c139.7446-11.7195,279.4696-15.286,417.6526,16.1387
		c46.3428,10.5389,92.55,21.6669,138.8184,32.5319C1313.0796,1512.5043,1311.7875,1509.3727,1309.6106,1508.5342z"/>
	<path d="M1076.3965,29.4467c59.2083,139.7054,164.8202,238.2147,257.1846,346.8306c26.5549,31.2274,58.299,53.0272,98.5698,61.6925
		c27.8318,5.9886,51.3186,20.073,73.585,37.2845c31.8984,24.657,43.6475,56.6244,38.1267,95.9293
		c-2.3608,16.8081-7.7422,33.4277-3.8296,53.0738c38.0739,6.2033,40.4907,38.6657,42.4969,65.3733
		c18.6644,13.8546,33.694,12.7345,50.0183,8.3596c38.9917-10.4498,59.6848,10.2867,51.0897,49.7632
		c-10.047,46.1451-34.9023,83.2117-70.8677,119.7242c-5.6384-31.436,17.5604-57.4574,1.6366-85.3415
		c-10.8191-11.9214-27.1387-15.7611-42.8733-12.6321c-35.009,6.9619-55.1885-12.3081-63.7072-40.0418
		c-13.8335-45.038-45.6024-52.5212-84.7039-49.4151c-39.0044,3.0984-73.23-4.4626-93.1876-41.4715
		c-9.4066-17.4437-19.8781-36.9308-20.7736-55.9208c-5.7208-121.3169-56.9508-223.7827-125.1305-320.6288
		c-43.7771-62.1834-78.4819-129.7398-106.5825-200.5174C1074.3682,53.7505,1069.696,45.9707,1076.3965,29.4467z M1421.7994,513.2974
		c26.1379,62.4541,54.4283,80.5466,88.9001,57.4778c-2.2963-12.0107,1.2786-26.1217-9.1898-38.9803
		C1476.421,525.9728,1451.005,520.0748,1421.7994,513.2974z"/>
	<path d="M1088.0929,303.8701c-55.344-26.1822-105.2955-29.1997-158.5345-17.232c18.5082-66.8223-28.7695-91.9305-72.6663-122.7538
		C934.151,172.2056,1041.5613,233.4054,1088.0929,303.8701z"/>
	<path d="M850.8652,309.3175c-24.9731,7.4336-45.4299,9.9524-64.0541,21.3497c-17.3318,10.6065-27.572,28.8055-48.5991,39.8127
		c-10.6393-23.9705-21.8176-46.5916-43.231-61.3191c-20.6262-14.186-45.3073-16.2962-70.7449-22.5889
		C699.4742,261.2406,785.9558,269.3225,850.8652,309.3175z"/>
	<path d="M681.0453,443.6124c-10.7561,14.8519-24.8232,26.1733-33.6998,42.0123c-9.0051,16.0687-5.7875,34.8992-14.3746,54.8917
		c-32.9031-48.7031-75.0594-37.7202-120.4052-21.1319C555.9059,462.5178,629.0138,430.231,681.0453,443.6124z"/>
	<path d="M628.8561,623.3254c3.3512,29.144,6.6703,58.0091,10.4897,91.2238c-44.504-24.5656-81.0717-12.308-114.5302,22.4162
		C533.2759,694.927,586.6526,637.5979,628.8561,623.3254z"/>
</g>
</svg>
